<?xml version="1.0" standalone="no"?>
<!DOCTYPE svg PUBLIC "-//W3C//DTD SVG 1.1//EN" "http://www.w3.org/Graphics/SVG/1.1/DTD/svg11.dtd" >
<svg xmlns="http://www.w3.org/2000/svg">
<metadata>
Created by FontForge 20120731 at Tue Jul  5 11:35:07 2016
 By admin
</metadata>
<defs>
<font id="iconfont" horiz-adv-x="1024" >
  <font-face 
    font-family="iconfont"
    font-weight="500"
    font-stretch="normal"
    units-per-em="1024"
    panose-1="2 0 6 3 0 0 0 0 0 0"
    ascent="896"
    descent="-128"
    x-height="792"
    bbox="-0.142857 -147 1024.67 896"
    underline-thickness="50"
    underline-position="-100"
    unicode-range="U+0078-E646"
  />
<missing-glyph horiz-adv-x="374" 
d="M34 0v682h272v-682h-272zM68 34h204v614h-204v-614z" />
    <glyph glyph-name=".notdef" horiz-adv-x="374" 
d="M34 0v682h272v-682h-272zM68 34h204v614h-204v-614z" />
    <glyph glyph-name=".null" horiz-adv-x="0" 
 />
    <glyph glyph-name="nonmarkingreturn" horiz-adv-x="341" 
 />
    <glyph glyph-name="x" unicode="x" horiz-adv-x="1001" 
d="M281 543q-27 -1 -53 -1h-83q-18 0 -36.5 -6t-32.5 -18.5t-23 -32t-9 -45.5v-76h912v41q0 16 -0.5 30t-0.5 18q0 13 -5 29t-17 29.5t-31.5 22.5t-49.5 9h-133v-97h-438v97zM955 310v-52q0 -23 0.5 -52t0.5 -58t-10.5 -47.5t-26 -30t-33 -16t-31.5 -4.5q-14 -1 -29.5 -0.5
t-29.5 0.5h-32l-45 128h-439l-44 -128h-29h-34q-20 0 -45 1q-25 0 -41 9.5t-25.5 23t-13.5 29.5t-4 30v167h911zM163 247q-12 0 -21 -8.5t-9 -21.5t9 -21.5t21 -8.5q13 0 22 8.5t9 21.5t-9 21.5t-22 8.5zM316 123q-8 -26 -14 -48q-5 -19 -10.5 -37t-7.5 -25t-3 -15t1 -14.5
t9.5 -10.5t21.5 -4h37h67h81h80h64h36q23 0 34 12t2 38q-5 13 -9.5 30.5t-9.5 34.5q-5 19 -11 39h-368zM336 498v228q0 11 2.5 23t10 21.5t20.5 15.5t34 6h188q31 0 51.5 -14.5t20.5 -52.5v-227h-327z" />
    <glyph glyph-name="uniE600" unicode="&#xe600;" 
d="M745 -20q0 -22 16 -38t38.5 -16t38 16t15.5 38q0 23 -15.5 38.5t-38 15.5t-38.5 -15.5t-16 -38.5zM293 -20q0 -22 16 -38t38.5 -16t38 16t15.5 38q0 23 -15.5 38.5t-38 15.5t-38.5 -15.5t-16 -38.5zM929 687q-22 25 -56 25h-559q-8 0 -14.5 -6.5t-6.5 -15.5t6 -15.5
t15 -6.5h560q13 0 23 -11q13 -15 10 -38l-50 -291q-2 -15 -14 -25t-28 -11l-499 -46h-2q-2 0 -4 1q-15 2 -22 15q-2 4 -3 7v5l-40 281l-31 179q-4 32 -28.5 53.5t-55.5 21.5h-41q-17 0 -21 -16l-2 -6l2 -6q4 -16 21 -16h41q14 0 26 -11t14 -26l31 -180l55 -386q4 -31 28 -53
t55 -22h524q9 0 15.5 6.5t6.5 15.5t-6.5 15.5t-15.5 6.5h-524q-19 0 -31 17h-1q-5 9 -5 20q0 12 7 22t19 13l1 1l488 45q31 0 55 21t28 52l50 291q6 44 -21 74z" />
    <glyph glyph-name="uniE601" unicode="&#xe601;" 
d="M761 -17q0 -23 16 -39t38.5 -16t38.5 16t16 39t-16 39t-38.5 16t-38.5 -16t-16 -39zM302 -17q0 -23 16 -39t39 -16t39 16t16 39v0q0 23 -16 39t-39 16t-39 -16t-16 -39zM947 699q-22 26 -56 26h-654q-10 1 -13 11l-2 12q-2 15 -10 29q0 1 -1 2l-2 4q-26 40 -72 40h-42
q-17 0 -21 -16l-2 -6l2 -6q4 -16 21 -16h42q14 0 26.5 -11.5t14.5 -26.5l31 -183l56 -391q4 -32 28 -53.5t56 -21.5h531q9 0 16 6.5t7 15.5t-6.5 15.5t-16.5 6.5h-531q-19 0 -32 17v1q-6 9 -6 19q0 13 7.5 23t18.5 13l1 1l496 45q31 0 55.5 22t27.5 52v1l52 294q5 45 -22 75
z" />
    <glyph glyph-name="uniE602" unicode="&#xe602;" 
d="M40 364v-2v-3l1 -2q0 -1 0.5 -2.5t0.5 -2.5q1 -1 1.5 -2t1.5 -2q0 -1 1 -2l2 -1q3 -3 4 -3q1 -1 2 -1q5 -2 10 -2h81v-328q0 -34 21 -62t55 -37h183v369q0 23 16 39t39 16h105q23 0 39 -16t16 -39v-369h183q34 9 55 37t21 62v322h-48v-322q0 -23 -16 -39t-39 -16h-108
v325q0 42 -30 72.5t-73 30.5h-105q-43 0 -73 -30.5t-30 -72.5v-325h-108q-23 0 -39 16t-16 39v351q0 10 -7 17t-17 7h-52l360 406q14 16 34.5 16t34.5 -16l396 -445q7 -8 18 -8q9 0 16 6t8 16q0 10 -6 17l-396 445q-29 33 -70.5 33t-70.5 -33l-395 -445l-2 -2v-1v-1h-1v-1
l-1 -1v-2q-1 0 -1 -1v-1v-1l-1 -1v-1v-1z" />
    <glyph glyph-name="uniE603" unicode="&#xe603;" 
d="M984 364q0 1 -1 2v2v1q0 1 -1 1v2l-1 1v1h-1v1v1l-2 2l-395 445q-29 33 -71 33v0q-42 0 -71 -33l-395 -445l-2 -2v-1v-1h-1v-1l-1 -1v-2l-1 -1v-1v-1l-1 -1v-1v-1v-3v0v-1v-1l1 -2v-2q1 0 1 -1v-2q1 -1 1.5 -2t1.5 -2q0 -1 1 -2l2 -1q3 -3 4 -3q1 -1 2 -1q5 -2 10 -2h81
v-328q0 -34 21 -62t55 -37h184v369q0 23 16 39t39 16h104q23 0 39 -16t16 -39v-369h184q33 9 54 37t21 62v327h82q5 0 10 3l2 1l4 3l2 1l1 2q1 1 1 2l2 2v3q1 1 1 2v1v1h1v2v0v3z" />
    <glyph glyph-name="uniE604" unicode="&#xe604;" 
d="M801 230q-7 7 -16.5 7t-16 -6.5t-6.5 -16t7 -16.5q97 -97 105 -234h-724q8 137 105 234q102 103 247 107q5 -1 10 -1q113 0 192.5 80t79.5 192.5t-79.5 192.5t-192.5 80t-192.5 -80t-79.5 -192q0 -79 41.5 -145t110.5 -100q-97 -29 -169 -102q-58 -57 -89 -132t-31 -156
v0q0 -17 16 -22q4 -1 779 -1q9 0 16 6.5t7 16.5q0 81 -31 156t-89 132zM285 577q0 94 66.5 160.5t160.5 66.5t160.5 -66.5t66.5 -160.5q0 -93 -65.5 -159.5t-157.5 -67.5h-4h-10q-91 4 -154 70t-63 157zM801 230z" />
    <glyph glyph-name="uniE605" unicode="&#xe605;" 
d="M913 -54v0v3v7q-2 77 -32 147.5t-85 126.5q-69 68 -160 98q67 34 108 99.5t41 144.5q0 113 -80 193t-193 80t-193 -80t-80 -194q0 -78 41 -143.5t108 -99.5q-91 -30 -160 -98q-113 -114 -117 -274v-7v-2v-1v0v0v-2v-1v-1v-2v-1h1v-2q1 -1 1 -1.5t1 -1.5v0v-1h1v-1h1v-1
l1 -1v0l2 -2l1 -1h1l1 -1v0q1 0 1 -0.5t1 -0.5t2 -1v0h1h1h1l1 -1h1h2v0h758v0h2h1l1 1h1h1h1q1 0 1 1h1q1 0 2 1l1 1h1v1h1l2 2v0h1v1l1 1v1h1v1v1h1q0 1 1 2v1v1l1 1v2v1v1v2v0z" />
    <glyph glyph-name="uniE606" unicode="&#xe606;" 
d="M464 802h-348q-8 0 -14 -5.5t-6 -14.5v-348q0 -8 6 -14.5t14 -6.5h348q8 0 14.5 6.5t6.5 14.5v348q0 8 -6.5 14t-14.5 6zM444 454h-307v307h307v-307zM967 -23l-75 69q43 53 43 121q0 81 -58.5 138.5t-141 57.5t-141 -57.5t-58.5 -138.5t58.5 -138.5t140.5 -57.5
q74 0 129 47l76 -70q6 -5 13 -5q9 0 15 6t5.5 14t-6.5 14zM735 11q-66 0 -112.5 46t-46.5 110.5t46.5 110.5t112.5 46t113 -46t47 -110.5t-47 -110.5t-113 -46zM914 802h-348q-8 0 -14 -5.5t-6 -14.5v-348q0 -8 6 -14.5t15 -6.5h347q9 0 15 6.5t6 14.5v348q0 8 -6.5 14
t-14.5 6zM894 454h-307v307h307v-307zM464 352h-348q-8 0 -14 -6t-6 -14v-348q0 -8 6 -14.5t14 -6.5h348q8 0 14.5 6.5t6.5 14.5v348q0 8 -6.5 14t-14.5 6zM444 4h-307v307h307v-307z" />
    <glyph glyph-name="uniE607" unicode="&#xe607;" 
d="M967 -23l-75 69q43 53 43 121q0 81 -58.5 138.5t-141 57.5t-141 -57.5t-58.5 -138.5t58.5 -138.5t140.5 -57.5q74 0 129 47l76 -70q6 -5 13 -5q9 0 15 6t5.5 14t-6.5 14zM735 11q-66 0 -112.5 46t-46.5 110.5t46.5 110.5t112.5 46t113 -46t47 -110.5t-47 -110.5t-113 -46
zM464 802h-348q-8 0 -14 -5.5t-6 -14.5v-348q0 -8 6 -14.5t14 -6.5h348q8 0 14.5 6.5t6.5 14.5v348q0 8 -6.5 14t-14.5 6zM914 802h-348q-8 0 -14 -5.5t-6 -14.5v-348q0 -8 6 -14.5t15 -6.5h347q9 0 15 6.5t6 14.5v348q0 8 -6.5 14t-14.5 6zM464 352h-348q-8 0 -14 -6
t-6 -14v-348q0 -8 6 -14.5t14 -6.5h348q8 0 14.5 6.5t6.5 14.5v348q0 8 -6.5 14t-14.5 6z" />
    <glyph glyph-name="uniE608" unicode="&#xe608;" 
d="M681 8q0 -21 15 -36t36.5 -15t36.5 15t15 36q0 22 -15 37t-36.5 15t-36.5 -15t-15 -37zM252 8q0 -21 15 -36t36.5 -15t36.5 15t15 36q0 22 -15 37t-36.5 15t-36.5 -15t-15 -37zM813 491l-26 -148q-1 -14 -12.5 -24t-26.5 -10l-473 -44h-3q-1 0 -3 1q-14 2 -21 14
q-2 4 -3 7v4l-38 267l-30 170q-3 30 -26 50.5t-53 20.5h-39q-16 0 -20 -15l-2 -6l2 -6q4 -14 20 -14h39q14 0 25 -10.5t13 -25.5l30 -171l52 -366q3 -29 26 -49.5t52 -20.5h498q8 0 14 6t6 14.5t-6 14.5t-14 6h-498q-17 0 -29 16l-1 1q-5 8 -5 18q0 12 7 21t18 13h1l463 43
q29 0 52 20t26 49l27 151h-9q-16 0 -33 3zM273 707q-8 0 -14.5 -6t-6.5 -14.5t6 -14.5t15 -6h396q0 21 6 41h-402zM690 662.5q0 -61.5 43.5 -104.5t105 -43t105 43t43.5 104.5t-43.5 105t-105 43.5t-105 -43.5t-43.5 -105z" />
    <glyph glyph-name="uniE609" unicode="&#xe609;" 
d="M681 8q0 -21 15.5 -36t36.5 -15t36 15t15 36q0 22 -15 37t-36 15t-36.5 -15t-15.5 -37zM253 8q0 -21 15 -36t36 -15t36 15t15 36q0 22 -15 37t-36 15t-36 -15t-15 -37zM854 484h-9q-17 0 -33 3q-3 1 -7 1q-58 14 -96 60t-40 106v6v1q0 22 5 42h-482q-10 0 -13 10l-2 11
q-2 14 -8 27l-2 2q0 2 -2 4q-24 38 -67 38h-39q-16 0 -20 -15l-2 -6l2 -6q4 -15 20 -15h39q14 0 25 -10.5t13 -24.5l30 -171l52 -366q3 -30 26 -50.5t52 -20.5h498q8 0 14 6t6 14.5t-6 15t-14 6.5h-498q-17 0 -29 15l-1 1q-5 8 -5 18q0 12 7 21.5t18 12.5h1l463 43
q29 0 52 20.5t26 48.5v1l27 151h-1zM690 662.5q0 -61.5 43.5 -104.5t105 -43t105 43t43.5 104.5t-43.5 105t-105 43.5t-105 -43.5t-43.5 -105z" />
    <glyph glyph-name="uniE60A" unicode="&#xe60a;" 
d="M1010 649q-12 12 -29.5 12t-30.5 -13l-435 -439l-441 438q-13 12 -30.5 12t-30 -12.5t-12.5 -30t13 -30.5l469 -465l1 -1h1q0 -1 1 -1q12 -12 29 -12q18 0 31 12l464 470q13 12 13 29.5t-13 30.5z" />
    <glyph glyph-name="uniE60B" unicode="&#xe60b;" 
d="M512 684q41 0 70.5 29.5t29.5 71t-29.5 71t-70.5 29.5t-70.5 -29.5t-29.5 -71t29.5 -71t70.5 -29.5zM512 484q-41 0 -70.5 -29.5t-29.5 -70.5t29.5 -70.5t70.5 -29.5t70.5 29.5t29.5 70.5t-29.5 70.5t-70.5 29.5zM512 84q-41 0 -70.5 -29.5t-29.5 -71t29.5 -71
t70.5 -29.5t70.5 29.5t29.5 71t-29.5 71t-70.5 29.5z" />
    <glyph glyph-name="uniE60C" unicode="&#xe60c;" 
d="M842 408h-219q-36 0 -62 26t-26 62v233q0 37 26 62.5t62 25.5h219q36 0 62 -25.5t26 -62.5v-233q0 -36 -26 -62t-62 -26zM623 764q-14 0 -24.5 -10t-10.5 -25v-233q0 -14 10.5 -24.5t24.5 -10.5h219q15 0 25 10.5t10 24.5v233q0 15 -10 25.5t-25 10.5h-219v-1zM393 408
h-219q-36 0 -62 26t-26 62v233q0 37 26 62.5t62 25.5h219q36 0 61.5 -25.5t25.5 -62.5v-233q0 -36 -25.5 -62t-61.5 -26zM174 764q-15 0 -25 -10t-10 -25v-233q0 -14 10 -24.5t25 -10.5h219q14 0 24.5 10.5t10.5 24.5v233q0 15 -10.5 25.5t-24.5 10.5h-219v-1zM393 -49h-219
q-36 0 -62 25.5t-26 62.5v233q0 36 26 62t62 26h219q36 0 61.5 -26t25.5 -62v-233q0 -37 -25.5 -62.5t-61.5 -25.5zM174 307q-15 0 -25 -10.5t-10 -24.5v-233q0 -15 10 -25.5t25 -10.5h219q14 0 24.5 10.5t10.5 25.5v233q0 14 -10.5 24.5t-24.5 10.5h-219zM741.5 -32
q-81.5 0 -139 58t-57.5 139t57.5 139t139 58t139 -58t57.5 -139t-57.5 -139t-139 -58zM741.5 309q-59.5 0 -102 -42t-42.5 -102t42.5 -102t102 -42t101.5 42t42 102t-42 102t-101.5 42z" />
    <glyph glyph-name="uniE60D" unicode="&#xe60d;" 
d="M337 750h-196q-22 0 -38 -16t-16 -38v-196q0 -23 16 -38.5t38 -15.5h196q22 0 38 15.5t16 38.5v196q0 22 -16 38t-38 16zM340 500q0 -3 -3 -3h-196q-3 0 -3 3v196q0 2 3 2h196q3 0 3 -2v-196zM538 696q1 -1 3 -1h2h2h378h1h2h3q11 2 18 10.5t7 20t-7 19.5t-18 11
q-1 1 -3 1h-385q-2 0 -3 -2q-11 -2 -18 -10.5t-7 -19t7 -19t18 -10.5zM537 466q2 -2 4 -2h385q2 0 3 2q11 2 18 10.5t7 19.5t-7 19.5t-18 10.5h-3h-1q-1 1 -3 0h-376q-2 1 -3 0h-2h-3q-11 -3 -18 -11t-7 -19t7 -19.5t17 -10.5zM537 233q2 -2 4 -2h385q1 0 2 1q12 0 20.5 9
t8.5 22q0 12 -9 21.5t-22 9.5h-1h-380h-2h-2q-2 0 -3 -1q-11 -2 -18 -10.5t-7 -19.5t7 -19.5t17 -10.5zM928 89h-2h-385q-2 0 -3 -2q-11 -2 -18 -10.5t-7 -19t7 -19t18 -10.5q1 -1 3 -1h1h3h379h2q13 0 22 9t9 22q0 12 -8.5 21t-20.5 10zM239 259q41 0 69.5 -29t28.5 -69.5
t-28.5 -69.5t-69.5 -29t-69.5 29t-28.5 69.5t28.5 69.5t69.5 29zM239 309q-62 0 -105.5 -43.5t-43.5 -105t43.5 -105.5t105.5 -44t105.5 44t43.5 105.5t-43.5 105t-105.5 43.5z" />
    <glyph glyph-name="uniE60E" unicode="&#xe60e;" 
d="M834 397q-26 0 -47.5 12t-32.5 33q-12 -21 -33.5 -33t-47.5 -12t-48 12t-33 33q-11 -21 -32.5 -33t-48 -12t-48 12t-33.5 33q-11 -21 -32.5 -33t-48 -12t-48 12t-32.5 33q-12 -21 -33.5 -33t-47.5 -12q-47 0 -73 38q-14 16 -16 39t8 44l99 235q9 26 31 40.5t49 14.5h455
q27 0 49 -15.5t32 -39.5l96 -235q9 -21 6 -43.5t-16 -39.5q-26 -38 -74 -38zM754 528q15 0 26.5 -11.5t11.5 -26.5q0 -17 12.5 -30t29.5 -13q22 0 36 18q5 5 5.5 15t-3.5 18l-96 235q-12 25 -35 25h-455q-11 0 -21 -6.5t-14 -16.5l-98 -235q-9 -21 2 -33q12 -20 35 -20
q17 0 30 13t13 30q0 15 11.5 26.5t26.5 11.5t26.5 -11.5t11.5 -26.5q0 -17 13 -30t30 -13t30 13t13 30q0 15 11.5 26.5t26.5 11.5t26.5 -11.5t11.5 -26.5q0 -17 13 -30t30 -13t30 13t13 30q0 15 11 26.5t26.5 11.5t26.5 -11.5t11 -26.5q0 -17 13 -30t30 -13t30 13t13 30
q-2 17 9 27.5t27 10.5zM567 -38q-20 0 -35.5 15t-15.5 36l3 169h-104l-2 -172q0 -21 -15 -35.5t-36 -14.5h-71q-41 0 -71 29.5t-30 71.5v265q0 11 7 18t18.5 7t18.5 -7t7 -18v-263q0 -21 15 -35.5t35 -14.5h71l3 171q0 21 14.5 36t35.5 15h104q20 0 35 -15t15 -36l-2 -169
h166q21 0 36 15t15 36v260q0 11 7 18t18.5 7t18 -7t6.5 -18v-263q0 -41 -29.5 -71t-71.5 -30h-166z" />
    <glyph glyph-name="uniE60F" unicode="&#xe60f;" 
d="M703 439h-382q-11 0 -19 -8t-8 -19.5t8 -19.5t19 -8h382q11 0 19 8t8 19.5t-8 19.5t-19 8zM839 57q0 -23 -16 -39t-38 -16h-546q-22 0 -38 16t-16 39v545q0 23 16 39t38 16h82v-109h382v109h82q22 0 38 -16t16 -39v-545zM376 711h60q0 23 22.5 39t53.5 16t53.5 -16
t22.5 -39h60v-109h-272v109zM785 711h-82v55h-73q-19 25 -50 39.5t-68 14.5t-68 -14.5t-50 -39.5h-73v-55h-82q-45 0 -77 -32t-32 -77v-545q0 -45 32 -77t77 -32h546q45 0 77 32t32 77v545q0 45 -32 77t-77 32zM703 166h-382q-11 0 -19 -8t-8 -19.5t8 -19.5t19 -8h382
q11 0 19 8t8 19.5t-8 19.5t-19 8zM703 302h-382q-11 0 -19 -8t-8 -19t8 -19t19 -8h382q11 0 19 8t8 19t-8 19t-19 8z" />
    <glyph glyph-name="uniE610" unicode="&#xe610;" 
d="M644 -31q-26 0 -42 17q-16 18 -42.5 36t-49.5 18t-50 -18t-42 -35q-16 -17 -42 -17q-11 0 -21 4l-1 1l-108 60l-1 1q-15 10 -20 28t3 34q10 30 10 44q0 48 -34 81.5t-81 33.5h-4q-14 0 -24 11t-14 30q-9 65 -9 86q0 38 9 86q4 19 14.5 30t23.5 11h4q48 0 81.5 33.5
t33.5 80.5q0 9 -2.5 20.5t-5 17t-2.5 6.5q-8 16 -3 34t20 29h1l114 63h1q10 4 21 4q26 0 42 -17q15 -16 41.5 -33t48.5 -17q23 0 49 16.5t41 33.5q16 16 41 16q12 0 22 -4l1 -1l110 -61h1q15 -11 20 -29t-3 -34q-10 -30 -10 -44q0 -47 33.5 -80.5t81.5 -33.5h4
q13 0 23.5 -11t14.5 -30q9 -48 9 -86.5t-9 -86.5q-4 -19 -14.5 -30t-23.5 -11h-4q-48 0 -81.5 -33.5t-33.5 -80.5q0 -9 2.5 -20t5 -17t2.5 -7q8 -16 3 -34t-20 -28l-1 -1l-112 -62h-1q-10 -4 -21 -4zM641 21q1 -1 3 -1l105 58q-14 33 -14 64q0 66 45.5 114.5t111.5 51.5
q8 44 8 75.5t-8 75.5q-66 4 -111.5 52t-45.5 114q0 31 14 64l-103 57h-1q-2 0 -4 -1q-15 -16 -38 -32q-47 -33 -89 -33q-41 0 -89 34q-22 16 -39 33q-1 1 -4 1l-107 -59q14 -33 14 -64q0 -66 -45.5 -114t-111.5 -52q-8 -44 -8 -75.5t8 -75.5q66 -3 111.5 -51t45.5 -115
q0 -31 -14 -64l101 -56q2 0 4 1q15 16 38 33q49 36 92 36t92 -36q23 -18 39 -35zM510 232q-63 0 -107.5 44.5t-44.5 107.5t44.5 108t107.5 45t107.5 -45t44.5 -108t-44.5 -107.5t-107.5 -44.5zM510.5 485q-41.5 0 -71 -29.5t-29.5 -71t29.5 -71t71 -29.5t71 29.5t29.5 71
t-29.5 71t-71 29.5z" />
    <glyph glyph-name="uniE611" unicode="&#xe611;" 
d="M769.5 700.5q-50.5 49.5 -117 77.5t-140.5 28t-140.5 -28t-117 -77.5t-79 -115t-28.5 -138.5q0 -77 34 -148t97 -127l234 -210l19 17l215 193q63 56 97 127t34 148q0 73 -28.5 138.5t-79 115zM793 322q-29 -61 -84 -110l-197 -176l-197 176q-55 49 -84 110
q-28 60 -28 125q0 126 90.5 215t218.5 89t218.5 -89t90.5 -215q0 -65 -28 -125zM613 515q-42 41 -101 41t-101 -41t-42 -99.5t42 -100t101 -41.5t101 41.5t42 100t-42 99.5zM574 354q-26 -25 -62 -25t-62 25t-26 61t26 62q25 25 61.5 25t62.5 -26q26 -25 26 -61t-26 -61z
" />
    <glyph glyph-name="uniE612" unicode="&#xe612;" 
d="M274 88l-6 7q6 -8 6 -19v12zM528 421q3 1 5 3zM631 325h-237q-12 0 -20.5 -9t-8.5 -21t8.5 -20.5t20.5 -8.5h237q12 0 21 8.5t9 21t-9 21t-21 8.5zM917 630h-1v2l-4 4q-1 0 -2 1l-146 147q-2 2 -4 3q-12 11 -28 11v0q-17 0 -29 -11t-14 -27v-166q-1 -11 -10 -17l-160 -92
l-6 -2v1h-1q-3 0 -7 2l-161 91q-8 7 -9 18v156v5v4q-2 17 -14 27.5t-29 10.5v0q-16 0 -28 -10l-4 -4l-146 -147l-2 -1l-4 -4q-1 -1 -1 -2q-9 -11 -9 -26v-326q1 -15 12 -25v-1l158 -157l6 -7v-83v-1q0 -14 10.5 -24t24.5 -10h202h204q14 0 24.5 10t10.5 24v84l6 6l158 158v0
q11 11 12 26v326q0 14 -9 26zM689 583l-3 -2l-3 -2zM869 580v-292l-12 -12l-1 -1l-10 -11l-144 -143q-10 -10 -11 -24v-42q-1 -11 -9 -18.5t-19 -7.5h-150v1h-152q-11 0 -19 7.5t-9 17.5v31q0 1 1 1v10h-1q-1 14 -11 24l-1 1v0l-143 143l-11 11q-11 11 -12 27v277
q0 16 10 28v0l3 3l11 11l95 95v-146v-4v-3q2 -15 14 -24q3 -2 6 -3l201 -114l4 -2q6 -3 12 -4q7 0 14 3l4 3l207 117q12 9 14 23v154l109 -110q10 -12 10 -27z" />
    <glyph glyph-name="uniE613" unicode="&#xe613;" 
d="M930 554q-3 3 -30 35q-114 133 -147 169q-10 10 -16 15.5t-19 11.5t-28 7h-102h-66h-68h-59h-43h-16q-36 0 -66 -34q-18 -22 -79 -92l-96 -112q-24 -28 -24.5 -64t22.5 -71l2 -2q29 -34 208 -240l144 -166q31 -35 65.5 -35t64.5 34l150 173q164 188 203 234
q22 26 23.5 64.5t-23.5 72.5zM888 453q-42 -50 -203 -234l-149 -172q-14 -16 -23.5 -16t-23.5 16l-144 166q-171 197 -207 238q-25 39 -1 67l96 112q65 75 79 92q13 15 24 15h252h100q9 -1 24 -17q32 -34 146 -167q26 -30 30 -35q11 -15 10.5 -34t-10.5 -31zM681 500
l-169 -217l-169 218q-2 3 -5 3h-83v-39h2q19 0 28 -12q3 -3 3 -4q19 -26 111.5 -141t112.5 -142q21 27 113.5 142.5t111.5 141.5l2 3q10 12 28 12h2v39h-83q-3 0 -5 -4z" />
    <glyph glyph-name="uniE614" unicode="&#xe614;" 
d="M512 748l102 -243q6 -16 20 -25t31 -9l223 -2l-167 -167q-21 -20 -16 -49l40 -236l-207 111q-12 7 -26 7t-26 -7l-207 -111l40 236q5 29 -16 49l-167 167l223 2q17 0 31 9t20 25zM512 810q-33 0 -48 -30l-105 -253l-239 -2q-32 -5 -42 -36t13 -54l173 -172l-41 -242
q-4 -26 12.5 -44.5t39.5 -18.5q13 0 25 7l212 114l212 -114q12 -7 25 -7q23 0 39.5 18.5t12.5 44.5l-41 242l173 172q23 23 13 54t-42 36l-239 2l-105 253q-15 30 -48 30z" />
    <glyph glyph-name="uniE615" unicode="&#xe615;" 
d="M826 730h-629q-57 0 -97 -46q-34 -40 -34 -86v-436q0 -52 36 -88t87 -36h646q51 0 87 36t36 88v440q0 50 -40 89t-92 39zM909 455v-293q0 -31 -22 -53t-52 -22h-646q-30 0 -52 22t-22 53v293h794zM909 602v-43h-794v39q0 28 24 55.5t58 27.5h630q31 0 56.5 -24.5
t25.5 -54.5zM359 178l-77 208h-34l94 -242h33l94 242h-34zM502 386h33v-242h-33v242zM769.5 349.5q-6.5 13.5 -18.5 21.5t-26 11q-14 4 -31 4h-101v-242h31v96h61q46 0 68.5 19t22.5 56q0 21 -6.5 34.5zM740 295q-3 -8 -10 -14t-18 -9q-10 -3 -26 -3h-62v88h64q11 0 21.5 -2
t18 -6.5t11.5 -13t4 -21.5q0 -11 -3 -19z" />
    <glyph glyph-name="uniE616" unicode="&#xe616;" 
d="M929 420q0 69 -37 116.5t-92 47.5q-22 0 -43 -9q21 41 21 89q0 68 -38 116t-91 48q-41 0 -74 -29.5t-47 -76.5q-14 47 -47 76.5t-73 29.5q-54 0 -91.5 -48t-37.5 -116q0 -15 2 -31q-27 17 -57 17q-54 0 -91.5 -48t-37.5 -116t37.5 -116.5t91.5 -48.5q27 0 52 15
q-60 -68 -98 -124q-5 -7 -12.5 -20t-16.5 -47.5t-3 -66.5q11 -65 77 -110q34 -28 95 -28q58 0 125 30q11 5 60 5q58 0 87 -6q4 0 20 -7q52 -22 88 -22q52 0 100 34q57 41 65 97q11 71 -60 164q-7 10 -17 22q7 -1 14 -1q55 0 92 47.5t37 116.5zM879 420q0 -47 -23 -80.5
t-56 -33.5q-31 0 -54.5 34t-23.5 80q0 47 23 80.5t55.5 33.5t55.5 -33.5t23 -80.5zM648.5 778q31.5 0 55 -34t23.5 -80.5t-23.5 -80t-55 -33.5t-55 33.5t-23.5 80t23.5 80.5t55 34zM407.5 778q31.5 0 55 -34t23.5 -80.5t-23.5 -80t-55 -33.5t-55 33.5t-23.5 80t23.5 80.5
t55 34zM223.5 372q-31.5 0 -55 33.5t-23.5 80t23.5 80.5t55 34t55 -34t23.5 -80.5t-23.5 -80t-55 -33.5zM814 79q-6 -36 -45 -64q-35 -25 -71 -25q-26 0 -68 18q-22 9 -32 11q-33 6 -95 6t-81 -8q-57 -27 -104 -27q-41 0 -63 17l-3 2q-48 33 -56 78q-9 49 24 96
q10 15 29.5 41.5t74 87t105.5 100.5q38 31 73 31q18 0 35 -8.5t23.5 -14.5t8.5 -8l2 -3q128 -121 192 -205q58 -75 51 -125zM606 445q-7 8 -17 17t-35 20t-52 11q-52 0 -105 -41q-33 -27 -69 -62q24 43 24 96q0 15 -2 31q27 -18 58 -18q40 0 73 30t47 77q14 -47 47 -77
t74 -30q22 0 43 10q-20 -40 -20 -89q0 -21 4 -43q-41 42 -70 68z" />
    <glyph glyph-name="uniE617" unicode="&#xe617;" 
d="M310 804q-111 0 -189.5 -78.5t-78.5 -189.5q0 -70 25.5 -139.5t64.5 -123t89.5 -104t96.5 -85t90 -63t65.5 -40t26.5 -13.5q7 -4 11.5 -4t11.5 4q7 3 27.5 14t65.5 39.5t90.5 62.5t96.5 85t89.5 104.5t64 123t25.5 139.5q0 111 -78.5 189.5t-189.5 78.5q-57 0 -108.5 -23
t-89.5 -65l-4 -4l-4 4q-39 42 -91 65t-107 23zM533 656q31 46 79 72t102 26q91 0 154.5 -64t63.5 -154q0 -57 -19.5 -114t-50 -103t-73 -91t-80.5 -77t-81 -62t-67.5 -44.5t-45.5 -25.5l-3 -2l-3 2q-21 11 -45.5 25.5t-67.5 44.5t-81 62t-80.5 77t-73 91t-50 103t-19.5 114
q0 90 63.5 154t154.5 64q54 0 102 -26t79 -72q7 -11 21 -11t21 11z" />
    <glyph glyph-name="uniE618" unicode="&#xe618;" 
d="M777 492q-82 0 -139 58l-211 -114q9 -28 9 -52q0 -41 -21 -81l203 -110q26 38 68 60.5t91 22.5q79 0 134.5 -52.5t55.5 -127.5t-55.5 -127.5t-134 -52.5t-134 53t-55.5 127q0 1 2 19l-230 125l1 1q-51 -37 -114 -37q-79 0 -134.5 52.5t-55.5 127.5t55.5 127.5t134.5 52.5
q82 0 139 -58l211 114q-9 28 -9 52q0 74 55.5 127t134 53t134 -53t55.5 -127.5t-55.5 -127t-134.5 -52.5zM777 -12q47 0 80.5 31.5t33.5 76.5t-33.5 76.5t-80.5 31.5t-80 -31.5t-33 -76.5t33 -76.5t80 -31.5zM247 492q-47 0 -80.5 -31.5t-33.5 -76.5t33.5 -76.5t80.5 -31.5
t80 31.5t33 76.5t-33 76.5t-80 31.5zM777 780q-47 0 -80 -31.5t-33 -76.5t33 -76.5t80 -31.5t80.5 31.5t33.5 76.5t-33.5 76.5t-80.5 31.5z" />
    <glyph glyph-name="uniE619" unicode="&#xe619;" 
d="M91 -18v656q0 58 47 104q47 44 105 44h561q58 0 95 -47q34 -42 34 -101v-373q0 -58 -35 -95q-36 -36 -94 -36h-529zM243 740q-39 0 -72 -32t-33 -70v-558l120 100h546q38 0 60 23t22 62v373q0 40 -22.5 71t-59.5 31h-561zM360 452q0 -20 -13.5 -33.5t-33.5 -13.5
q-19 0 -32.5 13.5t-13.5 33.5q0 19 13.5 32.5t32.5 13.5q20 0 33.5 -13.5t13.5 -32.5zM570 452q0 -20 -13.5 -33.5t-32.5 -13.5q-20 0 -33.5 13.5t-13.5 33.5q0 19 13.5 32.5t33.5 13.5q19 0 32.5 -13.5t13.5 -32.5zM781 452q0 -20 -14 -33.5t-33 -13.5q-20 0 -33.5 13.5
t-13.5 33.5q0 19 13.5 32.5t33.5 13.5q19 0 33 -13.5t14 -32.5z" />
    <glyph glyph-name="uniE61A" unicode="&#xe61a;" 
d="M940 417l-163 -140q-17 -16 -13 -39l39 -224q4 -27 -15 -41q-12 -10 -28 -10q-11 0 -22 6l-206 111q-20 11 -40 0l-198 -111q-26 -14 -50 3q-27 20 -23 42l47 229q4 23 -12 39l-172 135q-21 20 -12 48.5t38 32.5l224 39q22 3 33 24l102 217q14 27 43.5 27t42.5 -27
l98 -217q11 -21 33 -24l228 -39q29 -4 38 -32t-12 -49z" />
    <glyph glyph-name="uniE61B" unicode="&#xe61b;" 
d="M512 765l324 -762l-316 220l-332 -220zM512 829q-19 0 -35 -10.5t-23 -28.5l-324 -762q-8 -20 -3 -40t21 -34q17 -14 40 -14q19 0 35 10l296 197l280 -196q17 -11 37 -11q22 0 40 14q16 13 21 33.5t-3 40.5l-324 762q-7 17 -23 28t-35 11z" />
    <glyph glyph-name="uniE61C" unicode="&#xe61c;" 
d="M395 61q-21 0 -35 15l-312 312q-15 14 -15 35t15 35.5t35.5 14.5t35.5 -15l276 -276l510 510q15 15 35.5 15t35 -15t14.5 -35.5t-14 -34.5l-546 -546q-14 -15 -35 -15z" />
    <glyph glyph-name="uniE61D" unicode="&#xe61d;" 
d="M630 441q13 -25 13 -57q0 -27 -10 -50q-10 -24 -27.5 -42t-41 -28t-50.5 -10q-28 0 -51.5 10t-41.5 28q-17 18 -27.5 41.5t-10.5 50.5q0 28 10 51q11 24 28 41q18 18 41.5 28.5t51.5 10.5q29 0 53 -11.5t42 -30.5q-11 7 -25 7q-20 0 -34 -14t-14 -34q0 -19 14 -33t34 -14
t33.5 14t13.5 33q0 7 -1 9zM512 669q68 0 125 -22q56 -20 105 -52q47 -31 87 -68t71 -67q31 -32 57 -53q4 -3 8.5 -6.5t6.5 -5t3.5 -3.5t2 -3t0.5 -3t-0.5 -3t-2 -3t-3.5 -3.5t-6.5 -4.5t-8.5 -7q-25 -21 -58 -53q-35 -35 -71 -69q-38 -37 -86 -69t-105 -53
q-58 -22 -125 -22q-68 0 -126 22q-57 20 -106.5 52.5t-89.5 69.5t-71.5 69t-56.5 53q-12 11 -14 13.5t-2 7.5q0 7 16 21q23 20 56 53q33 32 72 67q40 36 89 68q50 31 107.5 52.5t125.5 21.5zM512 203q38 0 71 14t58 38.5t39 57.5t14 71t-14 71t-39 57.5t-58 39t-71 14.5
q-37 0 -70 -14.5t-58 -39t-39.5 -57.5t-14.5 -71t14.5 -71t39.5 -57.5t58 -38.5t70 -14z" />
    <glyph glyph-name="uniE61E" unicode="&#xe61e;" 
d="M512 795q-112 0 -206.5 -55t-149.5 -149.5t-55 -206.5t55 -206.5t149.5 -149.5t206.5 -55t206.5 55t149.5 149.5t55 206.5t-55 206.5t-149.5 149.5t-206.5 55zM681 270q11 -12 11 -27.5t-11.5 -27t-27.5 -11.5t-27 11l-114 114l-114 -114q-12 -11 -27.5 -11t-27 11.5
t-11.5 27.5t11 27l114 114l-114 114q-11 11 -11 27t11.5 27.5t27.5 11.5t27 -11l114 -114l114 114q11 11 27 11t27.5 -11.5t11.5 -27.5t-11 -27l-114 -114z" />
    <glyph glyph-name="uniE61F" unicode="&#xe61f;" 
d="M688 423q7 7 12 14q17 -7 38.5 -12t55.5 -8t75 7.5t79 35.5q-7 -1 -18 -2.5t-40.5 -2t-54.5 3t-51.5 15t-38.5 30.5q0 1 1 1l-1 -1h-1v1l-6 -7l-8 -8l-12 -12q-4 -4 -12.5 -12t-16 -13.5t-17 -12t-20.5 -13t-22 -11.5q-73 -34 -176 -33q-48 0 -91 13.5t-64 27t-46.5 35
t-29.5 23.5l-15 9q-10 6 -13 7t-10 2.5t-14.5 -1t-18.5 -8.5q-23 -11 -42 -32.5t-26 -37.5l-8 -16q35 14 67.5 14.5t49 -4.5t26.5 -12l1 -1q1 -1 2 -1v0q16 -12 34 -22q-2 -14 -13 -26t-20 -17l-9 -5q57 9 77 32q17 -7 36 -13q-2 -17 -12.5 -33.5t-20.5 -24.5l-11 -8
q60 10 80 58q21 -4 43 -6q4 -17 3 -33t-5 -28l-4 -12q30 24 44 71q18 0 37 2q22 -48 52 -71q-2 4 -4.5 10.5t-6.5 27t1 38.5q14 2 29 6q29 -43 109 -51q-2 1 -6 2.5t-14.5 7.5t-18 13t-13.5 19.5t-6 26.5q13 5 26 13q11 -10 28 -19t61.5 -17.5t100.5 -4.5q-4 1 -11.5 2.5
t-27.5 8t-36.5 15t-33 25t-22.5 35.5z" />
    <glyph glyph-name="uniE620" unicode="&#xe620;" 
d="M440.5 493q71.5 0 138.5 15.5t109 43.5v-71h54v156q0 44 -45.5 77.5t-113 49.5t-143 16t-142.5 -16t-112.5 -49.5t-45.5 -77.5v-424q0 -44 45.5 -77.5t112.5 -49.5t143 -16v53q-107 0 -177.5 29.5t-70.5 60.5v128q43 -29 109.5 -44.5t138.5 -15.5v54q-107 0 -177.5 29
t-70.5 61v127q43 -28 109.5 -43.5t138 -15.5zM441 726q107 0 177 -29t70 -60.5t-70 -60.5t-177 -29t-177.5 29t-70.5 60.5t70.5 60.5t177.5 29zM681.5 464q-94.5 0 -149 -30.5t-54.5 -71.5v-272q0 -41 54.5 -71.5t148.5 -30.5t148 30t55 71v273q0 41 -54 71.5t-148.5 30.5z
M681.5 410q45.5 0 81.5 -9.5t51.5 -20t15.5 -18.5t-15.5 -19t-51.5 -20t-81.5 -9t-81.5 9t-52 20t-16 19t16 18.5t52 20t81.5 9.5zM681.5 42q-45.5 0 -81.5 9t-52 20t-16 19v65q57 -31 149.5 -31t148.5 31v-65q0 -8 -15.5 -19t-51.5 -20t-81.5 -9zM681.5 178
q-45.5 0 -81.5 9t-52 20t-16 19v65q57 -31 149.5 -31t148.5 31v-65q0 -8 -15.5 -19t-51.5 -20t-81.5 -9z" />
    <glyph glyph-name="uniE621" unicode="&#xe621;" 
d="M512 518q-55 0 -94.5 -39.5t-39.5 -94.5t39.5 -94.5t94.5 -39.5t94.5 39.5t39.5 94.5t-39.5 94.5t-94.5 39.5zM512 317q-28 0 -47.5 19.5t-19.5 47.5t19.5 47.5t47.5 19.5t47.5 -19.5t19.5 -47.5t-19.5 -47.5t-47.5 -19.5zM948 418h-1q-12 160 -126.5 274.5t-274.5 126.5
v1q0 14 -10 24t-24 10t-24 -10t-10 -24v-1q-160 -12 -274.5 -126.5t-126.5 -274.5h-1q-14 0 -24 -10t-10 -24t10 -24t24 -10h1q12 -160 126.5 -274.5t274.5 -126.5v-1q0 -14 10 -24t24 -10t24 10t10 24v1q160 12 274.5 126.5t126.5 274.5h1q14 0 24 10t10 24t-10 24t-24 10z
M546 16v66q0 14 -10 24t-24 10t-24 -10t-10 -24v-66q-132 12 -227 107t-107 227h66q14 0 24 10t10 24t-10 24t-24 10h-66q12 132 107 227t227 107v-66q0 -14 10 -24t24 -10t24 10t10 24v66q132 -12 227 -107t107 -227h-66q-14 0 -24 -10t-10 -24t10 -24t24 -10h66
q-12 -132 -107 -227t-227 -107z" />
    <glyph glyph-name="uniE622" unicode="&#xe622;" 
d="M302 322v-51h187v-171h51v171h188v51h-193v96h187v51h-148l108 108l-34 34l-136 -131l-136 137l-34 -40l108 -108h-148v-51h187v-102zM512 781q106 0 197.5 -52.5t145.5 -144.5t54 -200q0 -109 -52.5 -200.5t-144 -144t-200.5 -52.5t-200.5 52.5t-144 144t-52.5 200.5
t52.5 200.5t144 144t200.5 52.5zM512 838q-92 0 -176 -36t-145 -97t-97 -145t-36 -176t36 -176t97 -145t145 -97t176 -36t176 36t145 97t97 145t36 176t-36 176t-97 145t-145 97t-176 36z" />
    <glyph glyph-name="uniE623" unicode="&#xe623;" 
d="M346 36l-85 -2l-1 86q0 -53 17 -68.5t69 -15.5zM371 109v464q0 16 10.5 27t26 11t26 -11t10.5 -27l1 -464q0 -16 -11 -27t-26 -11t-26 11t-11 27zM568 109l-1 464q0 16 11 27t26 11t26 -11t11 -27v-464q0 -16 -11 -27t-26 -11t-25.5 11t-10.5 27zM678 36q52 0 69 15.5
t17 68.5l-1 -86zM884 660h-356h-2h-1h-38h-1h-1h-1h-224v-626h504v539q0 16 10.5 27t26 11t26 -11t10.5 -27v-534q0 -32 -21.5 -55t-51.5 -23h-37l-484 -1q-23 6 -39 24.5t-17 43.5v632h-47q-16 0 -27.5 11t-11.5 26t11.5 26t27.5 11h82h1h1v0h221v37q0 15 11.5 26t28.5 11
h41q17 0 29 -11t12 -26v-37h317q16 0 27.5 -11t11.5 -26t-11.5 -26t-27.5 -11z" />
    <glyph glyph-name="uniE624" unicode="&#xe624;" 
d="M512 837q-92 0 -176 -36t-144.5 -96.5t-96.5 -144.5t-36 -176t36 -176t96.5 -144.5t144.5 -96.5t176 -36t176 36t144.5 96.5t96.5 144.5t36 176t-36 176t-96.5 144.5t-144.5 96.5t-176 36zM512 -13q-108 0 -199 53.5t-144.5 144.5t-53.5 199t53.5 199t144.5 144.5
t199 53.5t199 -53.5t144.5 -144.5t53.5 -199t-53.5 -199t-144.5 -144.5t-199 -53.5zM424 480q0 4 1.5 9.5t9 20.5t17.5 25.5t29.5 18t43.5 4.5q31 -4 47.5 -16t18.5 -27.5t0 -27t-6 -18.5q-4 -10 -50 -49.5t-53 -56.5q-6 -14 -9 -36.5t-3 -38.5v-16h78q0 7 0.5 18t10 35
t29.5 36q18 11 36.5 28.5t35 42t20.5 51t-7 54.5q-36 58 -74.5 75.5t-95.5 15.5t-100.5 -34t-59.5 -103zM469 243h82v-90h-82v90z" />
    <glyph glyph-name="uniE625" unicode="&#xe625;" 
d="M231 769q9 -8 21 -22q21 -26 45 -62q41 -63 55 -100q-2 -6 -12 -23q-30 -50 -30 -91q0 -38 40 -92q27 -37 69 -79q41 -42 77 -70q53 -40 90 -40q36 0 89 28q25 13 34 14q33 -11 103 -61q58 -42 87 -72q-7 -36 -39 -66q-19 -18 -40 -28q-19 -9 -34 -9q-86 0 -202 68
q-113 67 -223 178q-107 109 -172 223q-32 56 -49 105q-16 47 -16 84q0 12 10 30q12 21 35 43q21 20 44 33q10 6 18 9zM238 837q-27 0 -69 -27t-76 -71.5t-34 -84.5q0 -63 34.5 -142.5t90.5 -158.5t131.5 -156t154.5 -135.5t162.5 -94.5t153.5 -36q62 0 120.5 56.5
t58.5 126.5q0 16 -53 61t-115 83.5t-85 38.5q-25 0 -65.5 -21.5t-60.5 -21.5t-71.5 44t-95.5 97t-44 76t21 58.5t21 59.5q0 18 -33 78t-77.5 115t-68.5 55z" />
    <glyph glyph-name="uniE626" unicode="&#xe626;" 
d="M512 599q52 0 97.5 -23.5t75.5 -64.5l27 -7q-32 52 -85 82.5t-115 30.5q-60 0 -113 -29l27 -7q41 18 86 18zM653 611l15 -12l5 18l16 10l-16 9l-5 19l-15 -12l-20 1l8 -17l-8 -18zM393 651l-15 11l-4 -19l-16 -12l17 -8l6 -18l14 15h19l-8 17l6 18zM537 678l-11 15
l-9 -18l-19 -6l14 -13v-19l17 10l19 -6l-3 19l12 15zM746 561l-16 11l-2 -19l-16 -11l18 -9l7 -18l13 13h20l-10 17l5 18zM956 419l-811 218q-15 4 -28.5 -4t-17.5 -23l-58 -216q-3 -15 4.5 -28t22.5 -17l812 -218q15 -4 28 4t17 23l58 216q4 15 -4 28.5t-23 16.5zM962 370
l-53 -198q-3 -12 -13 -17.5t-22 -2.5l-793 212q-11 3 -16.5 13t-3.5 21l54 198q3 12 13 17.5t21 2.5l793 -212q12 -3 17.5 -13t2.5 -21zM512 720q116 0 205.5 -70t119.5 -179l20 -6q-28 119 -124 196.5t-221 77.5q-75 0 -142 -29.5t-116 -82.5l20 -5q47 46 108.5 72
t129.5 26zM598 187q-42 -18 -86 -18q-52 0 -97.5 23.5t-75.5 64.5l-27 7q32 -52 85 -82.5t115 -30.5q60 0 113 29zM397 148l-15 12l-4 -18l-17 -9l17 -10l4 -19l15 13l20 -2l-7 18l7 17zM512 91l11 -15l9 17l18 6l-13 13v19l-17 -9l-19 5l3 -18l-11 -16zM276 208l15 -12
l4 19l16 9l-17 10l-6 19l-14 -13l-19 2l8 -18l-6 -17zM512 48q-116 0 -205.5 70t-119.5 179l-20 6q28 -119 124 -196.5t221 -77.5q75 0 142 29.5t116 82.5l-20 5q-47 -46 -108.5 -72t-129.5 -26zM647 117l15 -11l4 19l15 11l-17 8l-6 18l-13 -14h-19l8 -17l-6 -18zM245 446
l105 -28q13 -3 22 -6q2 12 4 19l13 49q3 12 7 22q-15 3 -28 7l-101 27q-19 5 -26 9l-7 -25q11 -1 27 -6l105 -28l-12 -46l-103 28l3 12q2 9 7 21l-25 7q-1 -6 -5 -23l-25 -92q-4 -17 5 -25q12 -10 69 -25q50 -13 65 -13t24 14q5 8 12 29q-11 5 -21 14q-7 -26 -13 -30
q-7 -6 -58 8q-48 13 -55 17q-5 4 -2 13zM477 399q-14 -1 -19 -1l8 31l8 -2l10 -4l6 22q-6 1 -11 2l-7 2l4 17q5 16 7 21l-24 7q-1 -7 -5 -22l-4 -17l-9 2l-15 5l-5 -22q5 0 15 -3l9 -2l-10 -38q-17 -1 -27 1l-2 -24q15 1 23 2l-12 -47q-2 -6 -9 -4q-5 1 -16 6q1 -10 -1 -23
q6 -2 8 -3q18 -4 23 -3q11 1 15 15l16 60q10 1 19 1zM551 298q-6 -5 -34 3q-19 5 -22 9q-2 3 0 7l16 62l43 -11q-6 -18 -10 -25q-2 -3 -8 -1q-4 0 -13 5q0 -8 -2 -22q10 -5 14 -6q18 -4 27 12q6 10 19 47q3 -5 14 -19q3 3 6 8q1 3 6 7q1 0 3 2l2 2q-22 23 -30 43
q-8 17 -13 36l5 5l-23 12q-14 -21 -33 -36q-16 -13 -43 -22q3 -13 3 -26q9 3 15 6q-1 -1 -2 -5.5t-3 -9.5l-16 -62q-5 -18 3 -26q9 -8 39 -15q24 -7 36 -6t20 12q4 4 12 21q-12 5 -20 12q-6 -15 -11 -19zM531 420q10 7 21 19q3 -11 7 -20q9 -22 18 -34q-6 1 -20 5l-39 10
q-1 0 -5 1t-6 2q5 3 24 17zM748 351l17 -17q24 18 47 43l-19 15q-22 -24 -45 -41zM728 343l14 50q5 17 7 21l-26 6q-2 -13 -5 -21l-13 -51l-55 16q-18 5 -23 7l-6 -23q11 -1 23 -5l30 -8q-4 -12 -5 -14q-9 -21 -23 -32q-19 -15 -52 -15q6 -11 9 -24q22 1 38 8q25 10 40 33
q8 13 16 37l23 -6l-20 -75q-3 -13 2.5 -18t29.5 -11q31 -9 40 -4q12 5 23 38q-10 6 -19 14q-7 -24 -12 -29q-4 -4 -22 1q-12 3 -15 5t-1 6l17 66l38 -10q12 -3 23 -8l6 24q-7 1 -24 5zM691 369q-7 31 -18 55l-23 -4q11 -24 18 -58z" />
    <glyph glyph-name="uniE627" unicode="&#xe627;" 
d="M572.5 607q-71.5 0 -123 -51t-51.5 -123t51.5 -123t123 -51t122.5 51t51.5 123t-51 123t-123 51zM852 894h-680q-70 0 -120 -50t-50 -120v-680q0 -70 50 -120t120 -50h680q70 0 120 50t50 120v680q0 70 -50 120t-120 50zM572 184q-90 0 -160 60l-36 -36l59 -59l-53 -52
l-58 58l-68 -68l-53 53l68 68l-62 62l53 52l62 -62l39 40q-39 61 -39 133q0 102 73 175t175.5 73t175.5 -73t73 -175.5t-73 -175.5t-176 -73z" />
    <glyph glyph-name="uniE628" unicode="&#xe628;" 
d="M460 500q-71 0 -121 -50.5t-50 -121.5t50 -121t121 -50t121.5 50t50.5 121t-50.5 121.5t-121.5 50.5zM852 894h-680q-70 0 -120 -50t-50 -120v-680q0 -70 50 -120t120 -50h680q70 0 120 50t50 120v680q0 70 -50 120t-120 50zM817 456h-81v92l-72 -71q49 -67 49 -149
q0 -104 -74 -178t-178.5 -74t-179 74t-74.5 178.5t74.5 178.5t178.5 74q80 0 146 -47l77 77h-103v81h237v-236z" />
    <glyph glyph-name="uniE629" unicode="&#xe629;" 
d="M424 128q137 0 237 94q3 4 6 7q12 13 30 13t30 -13l285 -284q12 -13 12 -30.5t-12.5 -30t-30 -12.5t-30.5 12l-254 255q-118 -96 -270 -96q-116 0 -214 57t-155.5 155t-57.5 214t57.5 214.5t155.5 155.5t214 57t214.5 -57t155.5 -155.5t57 -214.5q0 -66 -22 -132
q-2 -16 -14 -26.5t-28 -10.5q-17 0 -29.5 12.5t-12.5 30.5l-1 4q0 6 2 12v1q19 55 19 112q0 93 -46 172.5t-125 125.5t-172.5 46t-173 -46t-125.5 -125.5t-46 -173t46 -172.5t125.5 -125t172.5 -46z" />
    <glyph glyph-name="uniE62A" unicode="&#xe62a;" 
d="M707 527l-144 -143l144 -143q10 -11 10 -26t-10.5 -25.5t-25.5 -10.5t-26 10l-143 144l-143 -144q-11 -10 -26 -10t-25.5 10.5t-10.5 25.5t10 26l144 143l-144 143q-10 11 -10 26t10.5 25.5t25.5 10.5t26 -10l143 -144l143 144q11 10 26 10t25.5 -10.5t10.5 -25.5
t-10 -26z" />
    <glyph glyph-name="uniE62B" unicode="&#xe62b;" 
d="M494.5 -97q-96.5 0 -185.5 37q-85 36 -150 102q-66 66 -102 151q-38 88 -38 184.5t38 184.5q36 86 102 151q65 66 150 102q89 37 185.5 37t184.5 -37q85 -36 151 -102t102 -151q37 -88 37 -184.5t-37 -184.5q-36 -86 -102 -151q-66 -66 -151 -102q-88 -37 -184.5 -37z
M494 788q-83 0 -159 -32q-74 -31 -131 -88t-88 -131q-32 -76 -32 -159.5t32 -159.5q31 -74 88 -131t131 -88q76 -32 159.5 -32t159.5 32q74 31 130.5 88t88.5 131q32 76 32 159.5t-32 159.5q-32 74 -88.5 131t-130.5 88q-76 32 -160 32zM718 385h-206l-1 263q0 14 -9.5 23
t-22.5 9q-14 0 -23.5 -9.5t-9.5 -22.5l1 -295q0 -23 22 -30q6 -3 13 -3h236q13 0 22.5 9.5t9.5 23t-9.5 23t-22.5 9.5z" />
    <glyph glyph-name="uniE62C" unicode="&#xe62c;" 
d="M196 700q-64 -64 -97.5 -147.5t-33.5 -168.5t33.5 -168.5t97.5 -147.5q78 -78 181.5 -110.5t209 -14.5t192.5 82l-65 65q-103 -73 -232.5 -62t-222.5 104q-51 51 -77.5 117.5t-26.5 134.5t26.5 134.5t77.5 118.5q69 68 161 92.5t184 0t161 -92.5q60 -61 86 -140t15 -161
h-214l219 -218q64 86 82 191.5t-14.5 209t-110.5 181.5q-64 64 -147.5 97.5t-168.5 33.5t-168.5 -33.5t-147.5 -97.5z" />
    <glyph glyph-name="uniE62D" unicode="&#xe62d;" 
d="M450 620q22 1 34.5 21.5t11.5 50.5q-3 38 -20 52.5t-37 12.5q-24 -4 -35 -22.5t-8 -48.5q3 -32 19.5 -49.5t34.5 -16.5zM554 624q13 0 24.5 13t12.5 42q0 53 -37 55q-37 -2 -37 -55q0 -27 12 -41t25 -14zM620 604q17 -9 32.5 2.5t22.5 31.5q15 47 -15 61q-15 6 -28.5 -4
t-19.5 -28q-14 -43 8 -63zM682 543q5 -3 12.5 -4t19 6t21.5 24q18 32 -2 49q-4 5 -12.5 7t-19 -3t-18.5 -18q-26 -40 -1 -61zM604 578l-14 8q-30 16 -64.5 18t-63 -8t-51 -28.5t-29 -45.5t3.5 -59q15 -39 16 -77.5t-11 -68t-27.5 -51.5t-32.5 -36q-34 -33 -39.5 -72t10 -67
t41.5 -40q34 -16 64.5 -19t58.5 7.5t51 40.5t37 79q4 17 8.5 30t11.5 26.5t11 21t15 21t16 19t21.5 23.5t23.5 25q30 40 35.5 81t-8 70.5t-33 53t-35 36t-16.5 12.5zM755 537q-23 8 -40 -22q-8 -24 -5.5 -35t11.5 -16q26 -13 45 25q16 34 -11 48z" />
    <glyph glyph-name="uniE62E" unicode="&#xe62e;" 
d="M227 369q-35 8 -25 41l24 90l30 -8l-5 -18l92 -24l10 37l-127 34l7 27l157 -42l-24 -92l-122 33l-10 -38q-5 -15 11 -19l73 -19q18 -7 24 9q1 4 5 10q3 10 5 14q15 -9 28 -16q-8 -19 -15 -32q-11 -22 -43 -13zM400 314l-3 34q5 2 9 4q4 3 18 10l12 45l-21 6l8 27l48 -13
l-19 -73q7 -24 33 -30q41 -12 101 -27q-8 -10 -15 -24q-11 3 -24.5 6.5t-22 6t-13.5 3.5q-24 8 -41 13q-29 8 -39 31q-8 -5 -11 -6q-16 -9 -20 -13zM459 441q-7 25 -14 47l27 5q8 -21 16 -44zM501 367q-5 13 -14 36l-4 8l25 9q11 -22 21 -43zM487 431l6 25l70 -19l8 30
l29 -7l-8 -31l24 -6l-6 -25l-24 6l-16 -58q-7 -34 -40 -26q-11 2 -34 8q2 18 1 30q15 -5 28 -9q15 -4 17 11l14 52zM644 405l7 23l10 -3l4 16l26 -7l-4 -16l26 -7l5 16l26 -7l-4 -16l10 -3l-7 -23l-10 3l-21 -79l14 -3l-3 -11q6 14 12 37l23 86l74 -20l-41 -155
q-5 -20 -25 -17q-4 1 -13 4q-11 2 -15 3q2 17 1 25q4 -1 9 -2t8 -2q10 -4 11 6l7 23l-24 6q-13 -34 -39 -52q-5 9 -13 17l-16 -7q-7 18 -17 38l19 7l-37 10l14 -16q-21 -15 -37 -25q-6 12 -15 23q17 8 31 20l-25 7l6 23l12 -3l21 78zM663 329l-3 -12l26 -7l4 12zM672 362
l-3 -13l26 -7l3 12zM681 395l-3 -13l26 -7l3 13zM703 260q7 7 13 17l-26 7q6 -13 13 -24zM760 316q0 -1 -1 -4t-1 -5l22 -6l6 23l-22 6zM777 378l-7 -24l23 -6l6 24zM512 599q52 0 97.5 -23.5t74.5 -63.5l28 -8q-31 52 -84 82.5t-116 30.5q-60 0 -113 -29l27 -7q41 18 86 18
zM653 611l15 -12l4 18l17 10l-17 9l-4 19l-15 -12l-20 1l8 -17l-8 -17zM393 652l-15 10l-4 -19l-16 -12l17 -8l6 -18l14 14l19 1l-8 17l6 18zM537 678l-11 15l-9 -17l-19 -7l14 -13v-19l17 9l19 -5l-3 19l12 15zM746 561l-16 11l-2 -19l-16 -11l18 -9l7 -18l13 13h19l-9 17
l5 18zM956 420l-811 217q-15 4 -28.5 -4t-17.5 -23l-58 -216q-4 -15 4 -28.5t23 -17.5l811 -217q15 -4 28.5 4t17.5 23l58 216q4 15 -4 28.5t-23 17.5zM962 370l-53 -199q-3 -11 -13 -16.5t-21 -2.5l-793 212q-12 3 -17.5 13t-2.5 21l53 199q3 11 13 16.5t21 2.5l794 -212
q11 -3 16.5 -13t2.5 -21zM512 720q115 0 205.5 -70t119.5 -179l20 -5q-28 118 -124 195.5t-221 77.5q-75 0 -142 -29.5t-116 -82.5l20 -5q47 46 108.5 72t129.5 26zM598 187q-41 -18 -86 -18q-52 0 -97.5 23.5t-75.5 63.5l-27 8q31 -52 84 -82.5t116 -30.5q60 0 113 29z
M397 148l-15 12l-4 -18l-17 -10l17 -9l4 -19l15 13l20 -2l-8 17l8 18zM512 91l11 -15l9 17l19 6l-14 13v19l-17 -9l-19 5l3 -18l-11 -16zM276 208l15 -12l4 18l16 10l-17 10l-5 19l-14 -13l-20 2l9 -18l-7 -17zM512 48q-115 0 -205.5 70t-119.5 179l-20 5
q28 -118 124 -195.5t221 -77.5q75 0 142 29.5t116 82.5l-20 5q-47 -46 -108.5 -72t-129.5 -26zM647 116l15 -10l4 19l15 11l-17 9l-6 18l-13 -14l-19 -1l8 -17l-6 -18z" />
    <glyph glyph-name="uniE62F" unicode="&#xe62f;" 
d="M227 369q-35 8 -25 41l24 90l30 -8l-5 -18l92 -24l10 37l-127 34l7 27l157 -42l-24 -92l-122 33l-10 -38q-5 -15 11 -19l73 -19q18 -7 24 9q1 4 5 10q3 10 5 14q15 -9 28 -16q-8 -19 -15 -32q-11 -22 -43 -13zM408 314l22 82q-10 -9 -19 -16q3 22 5 40q30 31 53 75
l27 -15q-11 -19 -26 -39l-36 -134zM566 272q-46 18 -67 35q-14 -6 -47 -8l-11 28q22 -2 35 1q-6 10 -14 25l20 9l-16 4l18 66l46 -13l3 13l-49 13l6 24l50 -13l4 18l29 -8l-5 -18l51 -14l-6 -24l-52 14l-3 -12l47 -13l-19 -72l-26 7l1 7l-22 6q-6 -17 -17 -28q19 -13 62 -25
q-1 0 -2 -1.5t-2 -2.5q-9 -10 -14 -18zM501 338q6 5 11 16l-27 7q6 -13 16 -23zM504 402l-6 -20l20 -6l6 21zM573 384l-21 6l-6 -21l21 -6zM629 252q-2 1 -5 4q-11 12 -17 17q15 14 22 29q7 13 15 44l24 86l161 -43l-40 -148q-6 -27 -33 -19q-11 2 -28 6q1 11 2 27
q10 -3 18 -5q12 -4 14 6l5 16l-39 11l-13 -48l-28 8l12 47l-38 10q-7 -26 -32 -48zM673 338q0 -2 -1.5 -6t-1.5 -6l36 -10l6 23l-36 10zM689 398l-6 -24l36 -9l7 23zM741 331l-6 -23l39 -10l6 23zM793 370l-39 10l-6 -23l39 -10zM512 599q52 0 97.5 -23.5t74.5 -63.5l28 -8
q-31 52 -84 82.5t-116 30.5q-60 0 -113 -29l27 -7q41 18 86 18zM653 611l15 -12l4 18l17 10l-17 9l-4 19l-15 -12l-20 1l8 -17l-8 -17zM393 652l-15 10l-4 -19l-16 -12l17 -8l6 -18l14 14l19 1l-8 17l6 18zM537 678l-11 15l-9 -17l-19 -7l14 -13v-19l17 9l19 -5l-3 19l12 15
zM746 561l-16 11l-2 -19l-16 -11l18 -9l7 -18l13 13h19l-9 17l5 18zM956 420l-811 217q-15 4 -28.5 -4t-17.5 -23l-58 -216q-4 -15 4 -28.5t23 -17.5l811 -217q15 -4 28.5 4t17.5 23l58 216q4 15 -4 28.5t-23 17.5zM962 370l-53 -199q-3 -11 -13 -16.5t-21 -2.5l-793 212
q-12 3 -17.5 13t-2.5 21l53 199q3 11 13 16.5t21 2.5l794 -212q11 -3 16.5 -13t2.5 -21zM512 720q115 0 205.5 -70t119.5 -179l20 -5q-28 118 -124 195.5t-221 77.5q-75 0 -142 -29.5t-116 -82.5l20 -5q47 46 108.5 72t129.5 26zM598 187q-41 -18 -86 -18q-52 0 -97.5 23.5
t-75.5 63.5l-27 8q31 -52 84 -82.5t116 -30.5q60 0 113 29zM397 148l-15 12l-4 -18l-17 -10l17 -9l4 -19l15 13l20 -2l-8 17l8 18zM512 91l11 -15l9 17l19 6l-14 13v19l-17 -9l-19 5l3 -18l-11 -16zM276 208l15 -12l4 18l16 10l-17 10l-5 19l-14 -13l-20 2l9 -18l-7 -17z
M512 48q-115 0 -205.5 70t-119.5 179l-20 5q28 -118 124 -195.5t221 -77.5q75 0 142 29.5t116 82.5l-20 5q-47 -46 -108.5 -72t-129.5 -26zM647 116l15 -10l4 19l15 11l-17 9l-6 18l-13 -14l-19 -1l8 -17l-6 -18z" />
    <glyph glyph-name="uniE630" unicode="&#xe630;" 
d="M250 331v-48q8 2 25 9q44 14 62 23v-21h64v-2q6 -49 -28 -82t-107 -49v-43q110 16 162 60t47 116h131v-87q1 -16 -7.5 -23.5t-27.5 -6.5h-39v-48h69q80 -2 78 76v110q7 -2 21 -7q46 -16 73 -23v46q-101 32 -151 94h151v46h-250q9 21 16 49h212v46h-71q13 25 20 66h-66
q-5 -37 -19 -66h-71q2 21 2 46v39h-78v-85h-64q-12 29 -19 66h-69q12 -46 21 -66h-64v-46h186q-7 -28 -16 -49h-193v-46h161q-49 -53 -161 -94zM498 425h41q39 -52 90 -82h-235q69 34 104 82zM512 -64q-90 0 -172 33.5t-145.5 97t-97.5 145.5t-34 172t34 172t97.5 145.5
t145.5 97.5t172 34t171.5 -34t145 -97.5t97.5 -145.5t34 -172t-34 -172t-97.5 -145.5t-145 -97t-171.5 -33.5zM511.5 802q-113.5 0 -209.5 -56t-152 -152.5t-56 -209.5t56 -209.5t152 -152.5t209.5 -56t209.5 56t152 152.5t56 209.5t-56 209.5t-152 152.5t-209.5 56z" />
    <glyph glyph-name="uniE631" unicode="&#xe631;" 
d="M14 119q12 -12 29.5 -12t30.5 13l435 439l441 -438q13 -12 30.5 -12t30 12.5t12.5 30t-13 30.5l-469 464q0 1 -1 2h-1h-1v1q-12 12 -30 12q-17 0 -30 -13l-464 -469q-13 -12 -13 -29.5t13 -30.5z" />
    <glyph glyph-name="uniE632" unicode="&#xe632;" 
d="M777 -114q12 12 12 29.5t-13 30.5l-439 435l438 441q12 13 12 30.5t-12.5 30t-30 12.5t-30.5 -13l-464 -469q-1 0 -2 -1v-1v-1h-1q-12 -12 -12 -30q0 -17 13 -30l469 -465q12 -12 29.5 -12t30.5 13z" />
    <glyph glyph-name="uniE633" unicode="&#xe633;" 
d="M247 882q-12 -12 -12 -29.5t13 -30.5l439 -435l-438 -441q-12 -13 -12 -30.5t12.5 -30t30 -12.5t30.5 13l464 469q1 0 2 1v1v1h1q12 12 12 30q0 17 -13 30l-469 464q-12 13 -29.5 13t-30.5 -13z" />
    <glyph glyph-name="uniE635" unicode="&#xe635;" 
d="M938 392q-2 112 -58.5 207.5t-152 152t-207.5 58.5q-89 2 -170 -32t-139.5 -92.5t-92 -139.5t-32.5 -170q2 -112 58.5 -207.5t152 -152t207.5 -58.5q89 -2 170 32t139.5 92.5t92.5 139.5t32 170zM512 222q-16 0 -27 11t-11 27t11 27t27 11t27 -11t11 -27t-11 -27t-27 -11
zM550 365q0 -16 -11 -27t-27 -11t-27 11t-11 27v143q0 16 11 27t27 11t27 -11t11 -27v-143z" />
    <glyph glyph-name="uniE636" unicode="&#xe636;" 
d="M511.5 808q-115.5 0 -214 -57t-155.5 -155t-57 -213.5t57 -213.5t155.5 -155.5t214 -57.5t213.5 57.5t155 155.5t57 213.5t-57 213.5t-155 155t-213.5 57zM660 211l-13 -12q-8 -8 -19 -8t-18 8l-131 130q-20 6 -20 26v266q0 11 8 19t19 8h18q11 0 18.5 -8t7.5 -19v-243
l130 -129q8 -8 8 -19t-8 -19z" />
    <glyph glyph-name="uniE637" unicode="&#xe637;" 
d="M938 392q-2 112 -58.5 207.5t-152 152t-207.5 58.5q-89 2 -170 -32t-139.5 -92.5t-92 -139.5t-32.5 -170q2 -112 58.5 -207.5t152 -152t207.5 -58.5q89 -2 170 32t139.5 92.5t92.5 139.5t32 170zM666 449l-179 -179q-10 -10 -26 -10q-17 0 -26 9l-78 79q-10 9 -10 23
t10 24q10 9 25 9q14 0 25 -10l54 -54l157 158q11 10 25 10q15 0 24.5 -9.5t9.5 -24.5q-1 -16 -11 -25z" />
    <glyph glyph-name="uniE638" unicode="&#xe638;" 
d="M310 700q-1 5 -3.5 15.5t-3.5 14.5q242 55 480 -16q7 -2 14.5 1.5t9.5 10t-2.5 13.5t-11.5 9q-247 74 -498 17q-1 5 -4 18.5t-5 20.5q-2 9 -10 10t-13 -6q-25 -35 -45 -68q-7 -12 6 -18q36 -16 70 -36q7 -4 13 0q5 4 3 14zM596 8q22 21 57 98.5t59 142.5q3 10 -3.5 21
t-17.5 15q-9 3 -23 2l-12 -32q-4 -13 -16.5 -8.5t-8.5 17.5l20 54q2 6 2 12q0 25 -23 34q-14 5 -27.5 -1t-19.5 -20q-4 -13 -17 -8.5t-8 17.5l9 25q3 8 3 15q0 22 -20 29q-14 5 -26 -1q-13 -7 -18 -21q-1 -1 -1 -2l-21 -35q-6 -11 -17 -6t-7 16l78 238q6 17 0 31t-20 19
q-15 5 -28.5 -2t-19.5 -24l-133 -387q-5 -13 -17.5 -8.5t-8.5 16.5l30 89q-9 -3 -18 -7q-30 -12 -54 -53t-24 -90q0 -21 5 -41q18 -74 56 -117t108 -68q33 -12 60 -14t49 6t37.5 19t35.5 29z" />
    <glyph glyph-name="uniE639" unicode="&#xe639;" 
d="M310 804q-111 0 -189.5 -79t-78.5 -189q0 -70 25 -139.5t64.5 -123.5t89.5 -104t96.5 -85t90 -62.5t66 -39.5t26.5 -14q8 -4 12 -4t11 4q7 3 27.5 14t65.5 39.5t90.5 62.5t96.5 85t89.5 104.5t64 123t25.5 139.5q0 110 -78.5 189t-189.5 79q-57 0 -108.5 -23t-89.5 -65
l-4 -4l-4 4q-39 42 -91 65t-107 23z" />
    <glyph glyph-name="uniE63A" unicode="&#xe63a;" 
d="M715 803q-24 0 -44 -3v-1q-12 -3 -23 -7t-16 -6l-5 -3l-162 -215l162 -134l-124 -136l23 -164l-82 175l82 117l-178 127l105 169l-18 22q-50 42 -100 59q-12 1 -25 1q-111 0 -189.5 -78.5t-78.5 -189.5q0 -70 25.5 -139t64 -123t89.5 -104.5t96.5 -85t90 -63t65.5 -39.5
t27 -14q7 -4 11.5 -4t11.5 3q5 2 27 14t65.5 40t90 62.5t97 85t89.5 104.5t64.5 123t25.5 139q0 111 -78.5 189.5t-188.5 78.5z" />
    <glyph glyph-name="uniE63B" unicode="&#xe63b;" 
d="M899 739q-37 47 -95 47h-561q-58 0 -105 -44q-47 -45 -47 -104v-656l183 152h530q58 0 94 36q35 37 35 95v373q0 60 -34 101zM267 451.5q0 19.5 13.5 33t33 13.5t33 -13.5t13.5 -33t-13.5 -33t-33 -13.5t-33 13.5t-13.5 33zM477 451.5q0 19.5 13.5 33t32.5 13.5t33 -13.5
t14 -33t-14 -33t-33 -13.5t-32.5 13.5t-13.5 33zM734 405q-20 0 -33.5 13.5t-13.5 33t13.5 33t33 13.5t33 -13.5t13.5 -33t-13.5 -33t-32.5 -13.5z" />
    <glyph glyph-name="uniE63C" unicode="&#xe63c;" 
d="M191 276v0l321 222l321 -222q13 -12 31.5 -12t31.5 12q13 13 13 31.5t-13 31.5l-353 253q-13 12 -31 12t-31 -12l-353 -253q-13 -13 -13 -31.5t13 -31.5q13 -12 31.5 -12t31.5 12zM191 76v0l321 222l321 -222q13 -12 31.5 -12t31.5 12q13 14 13 32t-13 31l-353 253
q-13 12 -31 12t-31 -12l-353 -253q-13 -13 -13 -31t13 -32q13 -12 31.5 -12t31.5 12z" />
    <glyph glyph-name="uniE63D" unicode="&#xe63d;" 
d="M833 392v0l-321 -222l-321 222q-13 12 -31.5 12t-31.5 -12q-13 -13 -13 -31.5t13 -31.5l353 -252q13 -13 31 -13t31 13l353 252q13 13 13 31.5t-13 31.5q-13 12 -31.5 12t-31.5 -12zM833 592v0l-321 -222l-321 222q-13 12 -31.5 12t-31.5 -12q-13 -14 -13 -32t13 -31
l353 -253q13 -12 31 -12t31 12l353 253q13 13 13 31t-13 32q-13 12 -31.5 12t-31.5 -12z" />
    <glyph glyph-name="uniE63E" unicode="&#xe63e;" horiz-adv-x="1025" 
d="M1023 506q0 1 -1 2v1q-6 18 -23 23l-284 96l-173 252q-11 15 -28 16h-1h-1h-1q-18 -1 -28 -16l-173 -252l-285 -97q-17 -5 -23 -22v-1v-1l-1 -1q-4 -17 6 -32l176 -252l-1 -313q0 -18 13 -29v-1h1v-1h1q15 -10 32 -4l283 98l284 -98q16 -6 31 4h1q0 1 1 1l1 1
q13 11 13 29l-1 313l176 252q10 15 5 32zM778 258q-1 -1 -1 -2q-7 -10 -7 -22l1 -272l-244 85q-6 2 -14 2q-6 0 -14 -2l-244 -85l1 272q0 12 -7 22q-1 1 -1 2l-153 218l243 82q15 2 23 15l152 220l150 -219q3 -3 4 -5q7 -7 16 -10l247 -83zM625 459q-16 0 -29 -11
q-11 -12 -11 -30q0 -16 11 -28q12 -12 29 -12t28 12q12 12 12 28q0 17 -12 30q-11 11 -28 11zM400 378q17 0 28 12q12 12 12 28q0 17 -12 30q-11 11 -28 11t-29 -11q-12 -12 -12 -30q0 -16 12 -28t29 -12zM619 270l-2 2q-45 38 -107 38q-63 0 -107 -40q-43 -39 -44 -93v-35
h73v6v1v2q0 36 24 61q22 25 54 25t57 -25q21 -25 21 -61v-3v-6h74v35q-1 53 -43 93z" />
    <glyph glyph-name="uniE63F" unicode="&#xe63f;" horiz-adv-x="1025" 
d="M661 562q-1 2 -3 5l-145 211l-146 -212q-8 -13 -23 -15l-233 -79l146 -210q1 -1 1 -2q7 -10 7 -21l-1 -261l235 81q6 2 13 2q6 1 14 -2l235 -81l-1 261q0 12 6 21q1 1 1 2l147 210l-237 80q-9 3 -16 10zM376 445q12 11 28 11t27 -11q12 -12 12 -28t-12 -27
q-11 -12 -27 -12q-15 0 -28 12q-11 12 -11 27t11 28zM657 245q-1 -51 -42 -90l-1 -2q-44 -37 -103 -37q-61 0 -103 38.5t-43 90.5v68h71v-40v-1v-2q0 -35 22 -59t53 -24t54 24q21 25 21 59v3v40h71v-68zM648 389q-11 -12 -27 -12t-28 12t-12 27q0 16 12 28t28 12t27 -12
q12 -11 12 -28q0 -14 -12 -27zM1023 506q0 1 -1 2v1q-6 18 -23 23l-284 96l-173 252q-11 15 -28 16h-1h-1h-1q-18 -1 -28 -16l-173 -252l-285 -97q-17 -5 -23 -22v-1v-1l-1 -1q-4 -17 6 -32l176 -252l-1 -313q0 -18 13 -29v-1h1v-1h1q15 -10 32 -4l283 98l284 -98
q16 -6 31 4h1q0 1 1 1l1 1q13 11 13 29l-1 313l176 252q10 15 5 32zM778 258q-1 0 -2 -1v-1q-7 -10 -7 -22l1 -272l-244 85q-6 2 -14 2q-5 0 -13 -2l-245 -85l1 272q0 12 -6 22q-1 1 -1 2l-153 218l243 82q15 2 23 15l152 220l150 -219q3 -3 4 -5q7 -7 16 -10l247 -83z" />
    <glyph glyph-name="uniE640" unicode="&#xe640;" horiz-adv-x="1025" 
d="M1023 506q0 1 -1 2v1q-6 18 -23 23l-284 96l-173 252q-11 15 -28 16h-1h-1h-1q-18 -1 -28 -16l-173 -252l-285 -97q-17 -5 -23 -22v-1v-1l-1 -1q-4 -17 6 -32l176 -252l-1 -313q0 -18 13 -29v-1h1v-1h1q15 -10 32 -4l283 98l284 -98q16 -6 31 4h1q0 1 1 1l1 1
q13 11 13 29l-1 313l176 252q10 15 5 32zM778 258q-1 -1 -1 -2q-7 -10 -7 -22l1 -272l-244 85q-6 2 -14 2q-6 0 -14 -2l-244 -85l1 272q0 12 -7 22q-1 1 -1 2l-153 218l243 82q15 2 23 15l152 220l150 -219q3 -3 4 -5q7 -7 16 -10l247 -83zM625 459q-16 0 -29 -11
q-11 -12 -11 -30q0 -16 11 -28q12 -12 29 -12t28 12q12 12 12 28q0 17 -12 30q-11 11 -28 11zM400 378q17 0 28 12q12 12 12 28q0 17 -12 30q-11 11 -28 11t-29 -11q-12 -12 -12 -30q0 -16 12 -28t29 -12zM589 269v-3q0 -35 -22 -61q-24 -25 -56 -25t-55 25t-23 61v2v1v42
h-74v-71q1 -54 45 -94q44 -39 107 -39q61 0 107 38v1h1q43 40 43 94v71h-73v-42z" />
    <glyph glyph-name="uniE641" unicode="&#xe641;" 
d="M822 520q20 20 21 50t-19 50.5t-49.5 20t-50.5 -20.5l-319 -319l-109 108q-21 20 -50.5 21t-49.5 -19.5t-21 -48.5q0 -28 20 -48l157 -158q21 -21 53.5 -20.5t53.5 21.5z" />
    <glyph glyph-name="uniE642" unicode="&#xe642;" 
d="M505 147q-24 0 -41 -17.5t-17 -42t17 -42t41 -17.5t41 17.5t17 42t-17 42t-41 17.5zM447 -69q0 -24 17 -41.5t41 -17.5t41 17.5t17 41.5v0q0 25 -17 42.5t-41 17.5t-41 -17.5t-17 -42.5zM905 501l-339 347l-14 14q-17 18 -41 18t-41 -18l-14 -14l-340 -347
q-20 -17 -20 -43q0 -25 17.5 -42t41.5 -17q27 0 44 19l248 253l-1 -423q0 -2 1 -4.5t5.5 -9.5t10.5 -12t17 -9.5t24 -4.5q3 0 6 1q3 -1 5 -1q21 0 35.5 10t19.5 20l4 10l1 423l247 -253q18 -19 44 -19q25 0 42 17t17 42q0 26 -20 43z" />
    <glyph glyph-name="uniE643" unicode="&#xe643;" 
d="M528 286q-20 0 -34 14t-14 33v64q0 20 14 34t34 14t34 -14t14 -34v-64q0 -19 -14 -33t-34 -14zM719 286q-20 0 -34 14t-14 33v64q0 20 14 34t33.5 14t33.5 -14t14 -34v-64q0 -19 -14 -33t-33 -14zM512 743q-123 0 -228 -62q-60 66 -158 66q-19 0 -28 -16.5t1 -32.5
q3 -5 9.5 -17.5t17.5 -47.5t15 -71q1 -12 10.5 -20.5t21.5 -8.5q2 0 3 1q13 1 21.5 11t7.5 23q-6 55 -25 106q45 -15 70 -53h1q0 -1 2 -3l2 -1q4 -5 4.5 -5t6.5 -2l5 -2q0 -1 6 -1t6 0.5t5 2.5q1 0 3 0.5t3 1.5h1v1q98 67 217 67q104 0 192 -51.5t139.5 -139t51.5 -191
t-51.5 -191.5t-139.5 -139t-192 -51t-192 51t-139.5 139t-51.5 191q0 81 33 155q5 12 0.5 24.5t-16.5 17.5t-24.5 0.5t-17.5 -16.5q-39 -86 -39 -181q0 -90 35.5 -172.5t95.5 -142t142.5 -95t173.5 -35.5t173.5 35.5t142.5 95t95.5 142t35.5 173t-35.5 172.5t-95.5 142
t-142.5 95t-173.5 35zM512 743z" />
    <glyph glyph-name="uniE644" unicode="&#xe644;" 
d="M887 352q-15 49 -51 91q0 35 -17 67q-3 116 -86 197t-199 81t-199.5 -81.5t-85.5 -197.5q-16 -31 -17 -65q-36 -43 -52 -92q-20 -65 -13 -122q8 -69 56 -89q-5 -16 -5 -33q0 -58 58 -93q51 -31 126 -31q76 0 127 32h9q52 -32 128 -32q75 0 126 31q58 35 58 93q0 17 -6 33
q48 20 57 90q7 56 -14 121zM818 196q-3 -1 -6 -1q-8 0 -17 7l-26 19v-1q-9 6 -19 6q-13 0 -23 -9.5t-10 -23.5q0 -21 19 -30l24 -14q28 -18 28 -41q0 -26 -35.5 -44.5t-86.5 -18.5q-64 0 -101 27l-9 6h-11q-11 -1 -23 0l-11 1l-9 -7q-36 -27 -100 -27q-52 0 -87.5 18.5
t-35.5 44.5q0 23 29 41l28 16l-1 1q15 10 15 27q0 14 -10 23.5t-23 9.5t-23 -9l-21 -15q-9 -7 -17 -7q-4 0 -7 1q-19 7 -22 48.5t12 89.5q13 42 47 78l9 10l-1 13v6q0 23 12 46l4 7v9q0 92 65.5 157.5t158.5 65.5t158.5 -65.5t65.5 -157.5v-9l4 -7q13 -22 13 -46v-6l-1 -14
l9 -10q33 -36 46 -77q15 -48 11.5 -89.5t-22.5 -48.5z" />
    <glyph glyph-name="uniE645" unicode="&#xe645;" 
d="M444 683q110 0 193 -60t100 -150q-6 1 -13 1q-111 0 -190.5 -66.5t-79.5 -160.5q0 -30 10 -59h-20q-48 0 -94 12l-5 2l-107 -55l29 90q-2 1 -3 2q-54 34 -85 85.5t-31 110.5q0 103 86.5 175.5t209.5 72.5zM547 480q17 0 29.5 12t12.5 28.5t-12.5 28.5t-29.5 12t-29.5 -12
t-12.5 -28.5t12.5 -28.5t29.5 -12zM341 480q17 0 29.5 12t12.5 28.5t-12.5 28.5t-29.5 12t-29.5 -12t-12.5 -28.5t12.5 -28.5t29.5 -12zM444 747q-98 0 -181 -41.5t-131 -113.5t-48 -157q0 -62 28 -120.5t80 -101.5l-15 -46q-6 -19 -0.5 -37.5t20.5 -31.5q18 -15 41 -15
q16 0 29 7l86 44q44 -10 91 -10h23q32 2 49.5 28t8.5 56q-7 20 -7 39q0 67 60.5 115t145.5 48q5 0 10 -1h3q29 0 48 22q20 23 15 54q-21 114 -121.5 188t-234.5 74zM700 403q73 0 124.5 -43t51.5 -104q0 -35 -18.5 -65.5t-50.5 -51.5l-1 -1l17 -53l-64 32q-2 0 -3 -1
q-27 -7 -56 -7q-73 0 -124.5 43t-51.5 104t51.5 104t124.5 43zM761.5 283q10.5 0 17.5 7t7 17t-7 17t-17.5 7t-17.5 -7t-7 -17t7 -17t17.5 -7zM639 283q10 0 17.5 7t7.5 17t-7.5 17t-17.5 7t-17.5 -7t-7.5 -17t7.5 -17t17.5 -7zM700 467q-99 0 -169.5 -62t-70.5 -149
t70.5 -149t169.5 -62q26 0 51 5l42 -22q14 -7 29 -7q24 0 42 15q15 13 20 31.5t-1 36.5l-3 12q60 60 60 140q0 87 -70 149t-170 62z" />
    <glyph glyph-name="uniE646" unicode="&#xe646;" 
d="M708 586h-87v22q0 9 -6 15t-15 6h-2q-8 0 -14 -6t-6 -15v-22h-133v23q0 9 -6 15t-14 6h-2q-9 0 -15 -6t-6 -15v-23h-81q-30 0 -40 -8.5t-10 -36.5v-359q0 -28 10 -36t40 -8h387q29 0 36.5 7.5t7.5 36.5v360q1 28 -7 36t-37 8zM688 182h-353q-8 0 -14 6t-6 14v211h394
v-211q0 -8 -6 -14t-15 -6zM709 456h-394v67q0 8 6 14t14 6h67v-23q0 -8 6 -14t14 -6h2q9 0 15 6t6 14v23h132v-23q0 -8 6 -14t15 -6h2q8 0 14 6t6 14v23h68q9 0 15 -6t6 -14v-67z" />
  </font>
</defs>
</svg>
