<?xml version="1.0" encoding="utf-8"?>
<!-- Generator: Adobe Illustrator 19.0.0, SVG Export Plug-In . SVG Version: 6.00 Build 0)  -->
<svg version="1.1" id="图层_1" xmlns="http://www.w3.org/2000/svg" xmlns:xlink="http://www.w3.org/1999/xlink" x="0px" y="0px"
	 viewBox="80 80 40 40" style="enable-background:new 80 80 40 40;" xml:space="preserve">
<style type="text/css">
	.st0{fill:#FFFFFF;}
</style>
<g>
	<g transform="scale(0.1953125, 0.1953125)">
		<path class="st0" d="M597.6,518.2c-2.9-9.4-8-16.9-12.4-22c-0.1-5.6-1.5-11-4.1-16.1c-1-37.2-31.6-67.2-69-67.2
			c-37.5,0-68.2,30.1-69.1,67.4c-2.5,5-3.9,10.3-4,15.8c-4.4,5.2-9.6,12.8-12.6,22.2c-3.2,10.1-4.4,20.8-3.3,29.5
			c1.4,10.9,6.2,18.5,13.7,21.7c-0.9,2.5-1.4,5.1-1.4,7.9c0,9,5,17.1,14,22.6c8,4.9,18.6,7.5,30.5,7.5c11.8,0,22.9-2.8,30.9-7.8
			c0.7,0,1.4,0,2.1,0c8,5,19.1,7.8,30.9,7.8c11.9,0,22.5-2.6,30.5-7.5c9.1-5.5,14-13.5,14-22.6c0-2.7-0.5-5.4-1.4-7.9
			c7.5-3.2,12.4-10.9,13.7-21.8C601.9,539.1,600.7,528.3,597.6,518.2z M580.9,556c-0.5,0.2-1,0.3-1.5,0.3c-1.3,0-2.8-0.5-4.2-1.6
			l-6.3-4.6l0,0c-1.3-0.8-2.8-1.3-4.4-1.3c-4.4,0-8,3.6-8,8c0,3.2,1.9,5.9,4.6,7.2l5.7,3.5c3.2,1.9,7,5.2,7,9.8
			c0,8.5-13,15.2-29.7,15.2c-9.7,0-18.8-2.4-24.4-6.5l-2.1-1.6l-2.6,0.1c-2,0.1-3.7,0.1-5.6,0l-2.7-0.2l-2.2,1.6
			c-5.5,4-14.6,6.5-24.4,6.5c-16.6,0-29.7-6.7-29.7-15.2c0-4.6,3.8-7.9,7-9.8l6.7-4l0-0.1c2.1-1.4,3.4-3.9,3.4-6.6c0-4.4-3.6-8-8-8
			c-2.1,0-4,0.8-5.4,2.1l-5.1,3.7c-1.4,1-2.9,1.6-4.2,1.6c-0.5,0-1-0.1-1.5-0.2c-6.1-2.1-7.3-17.9-2.5-33.3
			c2.6-8.3,7.6-14.9,11.3-18.9l2.2-2.4l-0.2-3.2c0-0.4,0-0.9,0-1.3c0-3.8,1-7.6,3-11.1l0.9-1.7v-2.2c0-29.9,24.3-54.2,54.2-54.2
			c29.9,0,54.2,24.3,54.2,54.2v2l1,1.7c2.1,3.6,3.1,7.4,3.1,11.3c0,0.5,0,1-0.1,1.4l-0.3,3.2l2.2,2.4c3.7,4,8.6,10.5,11.2,18.7
			C588.2,538.1,587,554,580.9,556z"/>
	</g>
</g>
</svg>
