<?xml version="1.0" encoding="utf-8"?>
<!-- Generator: Adobe Illustrator 19.0.0, SVG Export Plug-In . SVG Version: 6.00 Build 0)  -->
<svg version="1.1" id="图层_1" xmlns="http://www.w3.org/2000/svg" xmlns:xlink="http://www.w3.org/1999/xlink" x="0px" y="0px"
	 viewBox="11 -11 40 40" style="enable-background:new 11 -11 40 40;" xml:space="preserve">
<style type="text/css">
	.st0{fill:#FFFFFF;}
</style>
<g>
	<g transform="scale(0.1953125, 0.1953125)">
		<path class="st0" d="M162.2,49c-5.8,0-10.4-4.6-10.4-10.4V24.7c0-5.7,4.7-10.4,10.4-10.4c5.8,0,10.4,4.6,10.4,10.4v13.9
			C172.6,44.4,167.9,49,162.2,49L162.2,49z M203.7,49c-5.8,0-10.4-4.6-10.4-10.4V24.7c0-5.7,4.7-10.4,10.4-10.4
			c5.8,0,10.4,4.6,10.4,10.4v13.9C214.1,44.4,209.4,49,203.7,49L203.7,49z M158.7-50.6c-17.6,0-34.6,4.7-49.6,13.6
			c-8.4-9.1-20.5-14.3-34.4-14.3c-2.5,0-4.9,1.4-6.1,3.6c-1.2,2.2-1.1,4.9,0.2,7c0.1,0.1,7.3,11.8,9.1,29.6c0.4,3.6,3.4,6.2,6.9,6.2
			c0.2,0,0.5,0,0.7,0c3.8-0.4,6.6-3.8,6.2-7.6c-0.9-9.3-3.1-17.2-5.3-23.1c5.3,1.8,11.1,5.2,15.2,11.6c0,0,0.1,0,0.1,0.1v0.1
			c0.3,0.4,0.6,0.6,0.9,0.9c0.3,0.3,0.6,0.7,1,1c0.4,0.3,0.9,0.4,1.3,0.5c0.4,0.2,0.8,0.4,1.2,0.5c0.4,0.1,0.9,0,1.4,0
			c0.4,0,0.9,0.1,1.3,0s0.8-0.3,1.2-0.5c0.4-0.2,0.9-0.2,1.3-0.5c0,0,0-0.1,0.1-0.1h0.1c13.9-9.6,30.3-14.6,47.2-14.6
			c46,0,83.4,37.3,83.4,83.1s-37.4,83-83.4,83s-83.4-37.3-83.4-83c0-11.7,2.4-23.1,7.1-33.7c1.6-3.5,0-7.6-3.5-9.1
			c-3.5-1.6-7.6,0-9.2,3.5c-5.5,12.4-8.3,25.6-8.3,39.3c0,53.4,43.6,96.9,97.3,96.9c53.6,0,97.3-43.5,97.3-96.9
			C256-7.1,212.3-50.6,158.7-50.6L158.7-50.6z"/>
	</g>
</g>
</svg>
