<?xml version="1.0" encoding="utf-8"?>
<!-- Generator: Adobe Illustrator 19.0.0, SVG Export Plug-In . SVG Version: 6.00 Build 0)  -->
<svg version="1.1" id="图层_1" xmlns="http://www.w3.org/2000/svg" xmlns:xlink="http://www.w3.org/1999/xlink" x="0px" y="0px"
	 viewBox="80 80 40 40" style="enable-background:new 80 80 40 40;" xml:space="preserve">
<style type="text/css">
	.st0{fill:#FFFFFF;}
</style>
<g>
	<g transform="scale(0.1953125, 0.1953125)">
		<path class="st0" d="M496.6,444.1c33.7,0,61.5,20.7,66.5,47.7c-0.9,0-1.9-0.1-2.8-0.1c-33.8,0-61.3,23-61.3,51.4
			c0,4.6,0.8,9.2,2.1,13.4c-1.5,0.1-3,0.1-4.5,0.1c-7.4,0-14.6-1-21.3-2.9c-0.4-0.1-1.1-0.3-1.1-0.3l-24.3,12.4l6.5-20.4
			c0,0-0.4-0.3-0.6-0.4c-16.1-10.3-26.4-26.5-26.4-44.7C429.3,469.3,459.4,444.1,496.6,444.1 M520,490.1c5.2,0,9.4-4.1,9.4-9.1
			c0-5.1-4.2-9.2-9.4-9.2c-5.2,0-9.4,4.1-9.4,9.2C510.5,486,514.7,490.1,520,490.1 M473.1,490.1c5.2,0,9.5-4.1,9.5-9.1
			c0-5.1-4.2-9.2-9.5-9.2c-5.2,0-9.4,4.1-9.4,9.2C463.7,486,467.9,490.1,473.1,490.1 M496.6,429.5c-45.1,0-81.8,31.8-81.8,70.8
			c0,19.1,9,37.4,24.5,50.6l-3.3,10.4c-1.8,5.6,0,11.7,4.4,15.5c2.7,2.3,6,3.5,9.4,3.5c2.2,0,4.5-0.5,6.6-1.6l19.4-9.9
			c6.8,1.5,13.7,2.3,20.7,2.3c1.6,0,3.3-0.1,5.3-0.2c4.5-0.2,8.6-2.6,11.2-6.3c2.6-3.7,3.2-8.4,1.9-12.7c-1-3-1.4-6-1.4-9
			c0-20.3,21-36.8,46.8-36.8c0.7,0,1.5,0,2.2,0.1c0.2,0,0.4,0,0.7,0c4.2,0,8.2-1.8,11-5c2.9-3.3,4.1-7.8,3.3-12.2
			C571,454.6,537,429.5,496.6,429.5L496.6,429.5z M554.8,507.6c22.1,0,40,15,40,33.4c0,10.8-6.2,20.4-15.7,26.6
			c-0.1,0.1-0.4,0.2-0.4,0.2l3.9,12.1l-14.4-7.4c0,0-0.5,0.1-0.7,0.2c-4,1.1-8.2,1.7-12.6,1.7c-22.1,0-40-15-40-33.4
			C514.8,522.6,532.7,507.6,554.8,507.6 M568.7,535c3.1,0,5.6-2.4,5.6-5.4c0-3-2.5-5.4-5.6-5.4c-3.1,0-5.6,2.4-5.6,5.4
			C563.1,532.6,565.6,535,568.7,535 M540.9,535c3.1,0,5.6-2.4,5.6-5.4c0-3-2.5-5.4-5.6-5.4c-3.1,0-5.6,2.4-5.6,5.4
			C535.3,532.6,537.8,535,540.9,535 M554.8,493.1c-30.1,0-54.5,21.5-54.5,48c0,26.4,24.5,48,54.5,48c3.9,0,7.7-0.4,11.5-1.1l9.7,4.9
			c2.1,1.1,4.4,1.6,6.6,1.6c3.4,0,6.7-1.2,9.4-3.5c4.5-3.8,6.2-9.9,4.4-15.5l-0.8-2.6c8.7-8.7,13.7-20,13.7-31.9
			C609.3,514.6,584.8,493.1,554.8,493.1L554.8,493.1z"/>
	</g>
</g>
</svg>
