<?xml version="1.0" encoding="utf-8"?>
<!-- Generator: Adobe Illustrator 16.0.0, SVG Export Plug-In . SVG Version: 6.00 Build 0)  -->
<!DOCTYPE svg PUBLIC "-//W3C//DTD SVG 1.1//EN" "http://www.w3.org/Graphics/SVG/1.1/DTD/svg11.dtd">
<svg version="1.1" id="图层_1" xmlns="http://www.w3.org/2000/svg" xmlns:xlink="http://www.w3.org/1999/xlink" x="0px" y="0px"
	 width="90.708px" height="119.99px" viewBox="0 721.9 90.708 119.99" enable-background="new 0 721.9 90.708 119.99"
	 xml:space="preserve">
<g>
	<path fill="#ffffff" d="M88.609,782.939l-40.9-38.041c-1.303-1.207-3.4-1.207-4.704,0l-40.9,38.041
		c-1.303,1.207-1.303,3.146,0,4.354c1.303,1.207,3.4,1.207,4.703,0l35.371-32.924v84.375c0,1.748,1.43,3.146,3.146,3.146
		c1.715,0,3.146-1.431,3.146-3.146v-84.375l35.402,32.924c1.304,1.207,3.401,1.207,4.704,0
		C89.911,786.084,89.911,784.146,88.609,782.939L88.609,782.939z M4.297,728.182h82.118c1.749,0,3.146-1.431,3.146-3.146
		c0-1.748-1.431-3.146-3.146-3.146H4.297c-1.748,0-3.146,1.43-3.146,3.146C1.119,726.784,2.55,728.182,4.297,728.182L4.297,728.182z
		"/>
</g>
</svg>
